<?xml version="1.0" encoding="UTF-8"?>
<svg version="1.1" xmlns="http://www.w3.org/2000/svg" width="263" height="223">
<path d="M0 0 C6.51819945 -0.00034954 13.03634567 -0.01201913 19.5545283 -0.02593428 C25.92399458 -0.03903627 32.2934372 -0.0443739 38.66291684 -0.04373521 C42.43260049 -0.04348245 46.20221857 -0.04621395 49.97188842 -0.05691326 C54.14696081 -0.0684571 58.32186887 -0.06383123 62.49695289 -0.0578078 C64.32576248 -0.06623706 64.32576248 -0.06623706 66.19151771 -0.07483661 C79.4781109 -0.02623168 89.58535661 1.70722827 99.83606422 10.56011212 C107.13212772 19.0721862 112.5682195 27.55007368 112.43762672 39.21636212 C111.82300343 42.65825256 109.7814952 44.16353888 107.08606422 46.18511212 C104.36027402 47.06650782 101.88560958 47.31250571 99.0314616 47.32212651 C97.82759417 47.32973832 97.82759417 47.32973832 96.59940618 47.33750391 C95.72344099 47.33800167 94.84747579 47.33849942 93.9449662 47.33901227 C93.00994284 47.34339452 92.07491948 47.34777677 91.11156207 47.35229182 C87.97098067 47.36567204 84.83042732 47.37185686 81.68982399 47.37798321 C79.44121633 47.38588453 77.19260994 47.3941535 74.94400489 47.40276349 C67.55517239 47.42897116 60.16633424 47.44428579 52.77747047 47.45854962 C50.23550304 47.46390904 47.69353565 47.46928655 45.15156829 47.47468197 C34.58202465 47.49630519 24.01248234 47.51519528 13.44292247 47.52630436 C10.70181799 47.52923399 7.96071354 47.53219568 5.21960914 47.53520977 C4.53833192 47.53595583 3.85705469 47.53670188 3.1551327 47.53747053 C-7.88937422 47.55013334 -18.9337205 47.58337168 -29.97815227 47.62501161 C-41.31798496 47.66741501 -52.65770547 47.69058945 -63.99762791 47.69622493 C-70.36442814 47.69988473 -76.73095566 47.71197385 -83.09768021 47.74432766 C-89.08379363 47.77431266 -95.06946793 47.78075418 -101.05564034 47.76894391 C-103.25470086 47.7687224 -105.45378122 47.77709085 -107.65277207 47.79459774 C-110.65100006 47.81717216 -113.6476197 47.80904864 -116.64585412 47.79311383 C-117.51958859 47.80699592 -118.39332306 47.820878 -119.29353434 47.83518076 C-123.68002465 47.77758697 -125.36937294 47.6225389 -128.90334713 44.78383076 C-131.50311716 41.42358558 -133.07022315 39.37313531 -132.75768578 34.99761212 C-130.92391131 23.71284613 -125.30404277 14.84564458 -116.91393578 7.18511212 C-114.34370567 5.45604822 -111.82611487 4.22155497 -108.91393578 3.18511212 C-108.01347023 2.84869198 -107.11300469 2.51227185 -106.18525231 2.16565716 C-102.82197818 1.15754873 -100.05598775 0.87379504 -96.55334008 0.77764142 C-95.59905963 0.74928047 -95.59905963 0.74928047 -94.6255008 0.72034657 C-92.43401501 0.65983377 -90.24254586 0.61508627 -88.05065453 0.57183087 C-87.25938353 0.55351397 -86.46811253 0.53519707 -85.65286362 0.51632512 C-57.11090477 -0.13715954 -28.54786359 -0.00225816 0 0 Z M-113.91393578 17.18511212 C-115.11443255 19.76563546 -115.11443255 19.76563546 -115.91393578 22.18511212 C-115.16627953 21.90796368 -114.41862328 21.63081524 -113.64831078 21.34526837 C-112.66346703 20.98304181 -111.67862328 20.62081524 -110.66393578 20.24761212 C-109.68940453 19.88796368 -108.71487328 19.52831524 -107.71081078 19.15776837 C-102.87788447 17.477044 -98.65943263 17.03828837 -93.54609215 17.04467022 C-92.80173446 17.0416991 -92.05737677 17.03872798 -91.29046279 17.03566682 C-88.7949066 17.02699165 -86.29939844 17.02547257 -83.80382836 17.02397931 C-82.01490723 17.01935024 -80.22598709 17.01432546 -78.4370681 17.00893414 C-73.57528585 16.99581536 -68.7135174 16.98936602 -63.85172021 16.98492348 C-60.81300034 16.98199149 -57.77428423 16.97788641 -54.73556626 16.97341931 C-45.22456002 16.95974482 -35.7135624 16.95007832 -26.20254701 16.94621742 C-15.23041448 16.94173875 -4.25840666 16.92419949 6.71368796 16.89521682 C15.19876733 16.8735832 23.68381166 16.86351221 32.16891831 16.8621763 C37.23462794 16.86112934 42.30022033 16.85524486 47.36590087 16.83735669 C52.13393092 16.82084733 56.90175597 16.81873442 61.66980445 16.82749569 C63.41565775 16.82826457 65.1615222 16.82394307 66.90734756 16.81403744 C83.1066518 16.72754691 83.1066518 16.72754691 91.08606422 20.18511212 C92.60200172 20.77292462 92.60200172 20.77292462 94.14856422 21.37261212 C94.78793922 21.64073712 95.42731422 21.90886212 96.08606422 22.18511212 C91.99054816 14.84731251 86.08279249 11.46953511 78.08606422 9.18511212 C75.64357714 9.00556606 73.19253285 8.92834151 70.74345863 8.92441571 C70.02597696 8.92059016 69.30849528 8.91676461 68.56927174 8.91282314 C66.17660031 8.90254392 63.78417113 8.90647558 61.39148414 8.91045392 C59.67123145 8.90610457 57.95098069 8.90092067 56.2307328 8.89496624 C51.56532146 8.88158746 46.8999912 8.88099644 42.23456442 8.88352954 C38.33562506 8.88460024 34.43670202 8.87971325 30.53776616 8.87492412 C21.33599824 8.86383233 12.13427114 8.86338938 2.93249977 8.86943829 C-6.54918176 8.87547557 -16.03071481 8.86317254 -25.512371 8.84186822 C-33.66204401 8.82423239 -41.81166985 8.81825408 -49.96136123 8.82150596 C-54.82470669 8.82331615 -59.68794629 8.82070922 -64.55127442 8.80679142 C-69.12728529 8.79418583 -73.70306542 8.79618299 -78.27907288 8.80920231 C-79.95397056 8.81156188 -81.62888462 8.80885572 -83.30376351 8.80057919 C-100.00137246 8.71513807 -100.00137246 8.71513807 -113.91393578 17.18511212 Z " fill="#0B192F" transform="translate(140.9139357805252,115.81488788127899)"/>
<path d="M0 0 C1.09520879 -0.00657338 1.09520879 -0.00657338 2.21254301 -0.01327956 C4.65418991 -0.02661218 7.09580076 -0.03283397 9.53747559 -0.03897095 C11.29049846 -0.04687644 13.04351973 -0.05514567 14.79653931 -0.06375122 C20.55066382 -0.08992511 26.30479543 -0.10527678 32.05895996 -0.11953735 C34.04385889 -0.12489942 36.02875777 -0.13027693 38.01365662 -0.13566971 C46.27478659 -0.15729389 54.53591464 -0.17602775 62.79706573 -0.1872921 C74.61344991 -0.20351297 86.42950435 -0.23665089 98.24576426 -0.29369295 C106.56616921 -0.33248104 114.88648632 -0.35193542 123.20697927 -0.35721266 C128.1700628 -0.36085468 133.13279426 -0.37275289 138.09577942 -0.4053154 C142.77118705 -0.43555152 147.44603244 -0.44165285 152.12151718 -0.42993164 C153.82861815 -0.42971218 155.53574641 -0.4379102 157.24275589 -0.45558548 C170.89105604 -0.58910587 183.20180527 1.23429005 193.64099121 11.0171814 C200.79980052 18.38538915 204.07250303 26.76329623 204.75427246 36.98983765 C204.6073544 40.12032244 203.74412494 41.8461319 201.65270996 44.15390015 C198.85695778 45.82319415 196.7924557 46.40493589 193.55125523 46.41396236 C192.73822675 46.42102796 191.92519828 46.42809355 191.08753258 46.43537325 C190.19989454 46.43295816 189.3122565 46.43054308 188.39772034 46.42805481 C187.45044632 46.43329149 186.5031723 46.43852817 185.52719301 46.44392353 C182.34511263 46.45895532 179.16319259 46.45962938 175.9810791 46.46029663 C173.70291369 46.46791587 171.42475086 46.47634296 169.14659119 46.48551941 C162.95247006 46.50749205 156.7583983 46.51626682 150.5642426 46.52134585 C146.69671175 46.52498557 142.82919391 46.53122356 138.96166801 46.53834724 C128.25315095 46.55780357 117.5446484 46.57431666 106.83611393 46.57722378 C106.15102641 46.57741135 105.4659389 46.57759892 104.76009115 46.57779217 C103.37127109 46.57815842 101.98245104 46.57852212 100.59363098 46.57888328 C99.90422323 46.57906609 99.21481549 46.57924891 98.5045166 46.57943726 C97.469143 46.57970808 97.469143 46.57970808 96.41285276 46.57998437 C85.22284128 46.58352771 74.03302203 46.61056141 62.84307725 46.64793514 C51.35407214 46.68600075 39.8651888 46.70493984 28.37611669 46.70568329 C21.92549376 46.7064777 15.4751189 46.71529209 9.0245533 46.74368095 C2.95963044 46.76977553 -3.1048371 46.77211476 -9.16979027 46.75602531 C-11.39787027 46.75420408 -13.62597595 46.76096192 -15.85400009 46.77684402 C-18.89165033 46.79718042 -21.92768872 46.78682554 -24.96531677 46.76863098 C-26.29342775 46.78843093 -26.29342775 46.78843093 -27.64836925 46.80863088 C-32.00656048 46.74884659 -33.80526015 46.56830118 -37.37116337 43.84204197 C-40.58411097 39.47144217 -40.68968956 35.7474781 -40.00744629 30.5796814 C-38.34416311 22.95901792 -34.58489193 16.90303004 -29.34729004 11.15390015 C-28.68729004 11.15390015 -28.02729004 11.15390015 -27.34729004 11.15390015 C-27.34729004 10.49390015 -27.34729004 9.83390015 -27.34729004 9.15390015 C-19.02934062 2.75547752 -10.42776648 0.04449588 0 0 Z M-21.34729004 17.15390015 C-21.67729004 18.14390015 -22.00729004 19.13390015 -22.34729004 20.15390015 C-19.62368903 19.52584138 -17.13072365 18.67793707 -14.53479004 17.65390015 C-3.15837553 13.87129837 10.25364861 15.00100819 22.11218262 14.99276733 C23.69919445 14.98812368 25.2862052 14.98309703 26.87321472 14.97772217 C31.13545974 14.964756 35.39768914 14.95818609 39.65995073 14.95371151 C42.33174752 14.9507586 45.00354023 14.94665018 47.67533493 14.94220734 C56.06184255 14.92858203 64.44834063 14.91888787 72.83485854 14.91500545 C82.46828597 14.91051878 92.10157194 14.89292173 101.73495638 14.86400485 C109.21905476 14.84232874 116.70311346 14.83229822 124.18724287 14.83096433 C128.64147192 14.82992174 133.0955671 14.82412962 137.54976273 14.80614471 C141.73767094 14.78955783 145.92534598 14.78755946 150.11327553 14.79628372 C151.63976356 14.7970481 153.16626473 14.79279161 154.69272041 14.78282547 C175.90150248 14.65259022 175.90150248 14.65259022 184.39020729 19.82047653 C185.13683317 20.26050632 185.88345905 20.70053612 186.65270996 21.15390015 C187.31270996 20.82390015 187.97270996 20.49390015 188.65270996 20.15390015 C187.54967001 18.88447986 186.41856292 17.63944841 185.27770996 16.40390015 C184.65122559 15.7078064 184.02474121 15.01171265 183.37927246 14.29452515 C174.44325833 7.27885789 164.4389749 7.57839036 153.62756348 7.63632202 C151.9198141 7.63089357 150.21206941 7.62376686 148.5043335 7.61508179 C143.89057985 7.59693006 139.27718615 7.60388246 134.66342664 7.61659813 C129.81991479 7.62676987 124.97643246 7.61732075 120.13291931 7.61105347 C112.00005599 7.60378848 103.86733825 7.61333383 95.73449707 7.63241577 C86.35268558 7.65417496 76.97122199 7.64713543 67.58941895 7.62511015 C59.51349824 7.6069146 51.43768181 7.60441831 43.36174721 7.61486483 C38.54756503 7.6210779 33.73354595 7.62199603 28.91937447 7.60871887 C24.39082311 7.5971006 19.8627169 7.60529441 15.33421326 7.6282959 C13.67951125 7.63355155 12.0247713 7.63212357 10.37008476 7.62324524 C-1.44075478 7.56575234 -12.64459068 8.22218238 -21.34729004 17.15390015 Z M188.65270996 21.15390015 C189.65270996 23.15390015 189.65270996 23.15390015 189.65270996 23.15390015 Z " fill="#0B192E" transform="translate(48.3472900390625,7.846099853515625)"/>
<path d="M0 0 C0.73886301 -0.00367669 1.47772601 -0.00735338 2.2389788 -0.01114148 C4.71604318 -0.02215873 7.19306557 -0.02601886 9.67015076 -0.02983093 C11.44597506 -0.03609718 13.22179806 -0.04274413 14.99761963 -0.04974365 C20.83173207 -0.07077144 26.66584473 -0.08114648 32.49998474 -0.09111023 C34.51061962 -0.0951586 36.52125436 -0.09927555 38.53188896 -0.10346031 C47.98096036 -0.12251105 57.43002396 -0.13674098 66.87911087 -0.14507228 C77.77372021 -0.15483742 88.66812598 -0.18113858 99.56266361 -0.22157317 C107.99087364 -0.25177653 116.41902547 -0.26654525 124.84728855 -0.26985329 C129.87733459 -0.27219942 134.90716314 -0.28110259 139.93715096 -0.30631447 C144.67404114 -0.32967334 149.41057185 -0.33379709 154.14750481 -0.32355309 C155.87962416 -0.32305947 157.61176169 -0.32932807 159.34382629 -0.34310913 C173.41269105 -0.44872183 184.58030459 1.42258136 195.24607849 11.33467102 C201.5031586 17.84092689 204.84988166 25.15515524 205.68357849 34.14717102 C205.54929429 38.30998133 205.3800707 40.29340637 202.74607849 43.52217102 C198.62361074 46.77017591 194.80316401 46.29539435 189.75175476 46.29434204 C188.34671601 46.29985707 188.34671601 46.29985707 186.91329265 46.30548352 C183.75501009 46.31655142 180.59676039 46.32036945 177.4384613 46.32417297 C175.1819193 46.33043526 172.92537833 46.33708185 170.6688385 46.34408569 C164.52412553 46.36151686 158.37942035 46.37205314 152.23468876 46.38029122 C148.39832231 46.38543669 144.5619583 46.39151261 140.72559357 46.39780235 C130.10551873 46.41467492 119.48544604 46.42930993 108.86536026 46.43655109 C106.10880278 46.43846102 103.35224531 46.44038134 100.59568787 46.44233704 C99.56798307 46.44306265 99.56798307 46.44306265 98.51951656 46.44380292 C87.42061956 46.4521033 76.32183034 46.4774398 65.22298041 46.50991771 C53.8300968 46.54298442 42.43728725 46.5606667 31.04434848 46.56419533 C24.64679062 46.56654952 18.24940306 46.57555801 11.85189056 46.60065651 C5.83383368 46.62388434 -0.18394015 46.62819165 -6.20203018 46.61789513 C-8.41194982 46.61739838 -10.62188313 46.62375962 -12.83176041 46.63745117 C-15.84706962 46.65508883 -18.86135407 46.64810359 -21.87666321 46.63491821 C-22.75274003 46.64588746 -23.62881685 46.6568567 -24.53144145 46.66815835 C-29.94267151 46.61096715 -33.01196007 45.73350133 -37.31642151 42.14717102 C-39.33647146 39.60015152 -39.32501939 38.35781906 -39.19142151 35.08467102 C-36.96347771 23.15108699 -31.37368109 13.11443109 -21.31642151 6.14717102 C-14.0252424 1.97756318 -8.40274873 -0.00224841 0 0 Z M-21.31642151 19.14717102 C-17.12083413 20.54570015 -15.270753 18.91980238 -11.31642151 17.14717102 C-7.20009739 16.07283634 -3.27530615 16.01648659 0.96839905 16.00672913 C1.69178227 16.003758 2.41516549 16.00078688 3.16046941 15.99772573 C5.5791543 15.98906935 7.99778951 15.98753306 10.41648865 15.98603821 C12.15305181 15.98140779 13.88961396 15.97638282 15.62617493 15.97099304 C20.34134271 15.95788675 25.05649626 15.95142728 29.7716794 15.94698238 C32.7204676 15.94404818 35.66925193 15.93994267 38.61803818 15.93547821 C47.85246628 15.92180658 57.08688552 15.91213886 66.32132304 15.90827632 C76.96515426 15.90379933 87.60885683 15.88626667 98.25264895 15.85727572 C106.48979885 15.83562231 114.72691266 15.82557005 122.9640907 15.8242352 C127.87894413 15.82318959 132.79367656 15.81733414 137.70849991 15.79941559 C142.33619859 15.78287205 146.96368615 15.78080976 151.59140396 15.7895546 C153.28320381 15.79032168 154.97501531 15.78602601 156.66678619 15.77609634 C165.74617769 15.72596202 174.01802024 16.08639893 182.68357849 19.14717102 C183.90045349 19.53904602 185.11732849 19.93092102 186.37107849 20.33467102 C187.13420349 20.60279602 187.89732849 20.87092102 188.68357849 21.14717102 C186.60526991 15.856931 182.56203167 13.37628403 177.57835388 11.05551147 C170.07417081 8.1411331 162.28630419 8.57974915 154.36717224 8.61372375 C152.62824271 8.60665605 150.88931933 8.59790747 149.15040588 8.58761597 C144.45202759 8.56520951 139.75398754 8.56804089 135.05557632 8.57693744 C131.12420483 8.58206495 127.19289592 8.57474062 123.26153088 8.56746536 C113.98386296 8.55049464 104.70635964 8.55400427 95.42869568 8.570755 C85.87526695 8.58768113 76.322295 8.57182859 66.76891613 8.53953212 C58.5477852 8.51279822 50.32679612 8.50557026 42.10562611 8.51404721 C37.20368111 8.51896439 32.30201095 8.51682609 27.40010071 8.49625969 C22.79023002 8.47784223 18.18101438 8.48393497 13.57117844 8.50845909 C11.88541359 8.51344743 10.1995983 8.51002886 8.51387405 8.49731064 C-3.413317 8.41448305 -13.14279084 9.61126857 -21.31642151 19.14717102 Z " fill="#0B192F" transform="translate(47.31642150878906,170.8528289794922)"/>
<path d="M0 0 C0.7328126 -0.00226556 1.4656252 -0.00453111 2.22064424 -0.00686532 C4.67708043 -0.0131972 7.13346133 -0.01237647 9.58990479 -0.0115509 C11.35089184 -0.01454295 13.11187824 -0.01794558 14.87286377 -0.02172852 C19.65813891 -0.03056929 24.44339618 -0.0329067 29.2286787 -0.0335443 C33.22453508 -0.0344938 37.2203873 -0.03817268 41.21624207 -0.0417164 C50.646137 -0.04986168 60.07602237 -0.05230061 69.50592041 -0.05158997 C79.22839315 -0.05098952 88.95081035 -0.06153451 98.67326903 -0.07733363 C107.02330211 -0.09041828 115.37331705 -0.09577345 123.7233603 -0.09513456 C128.70908449 -0.09487979 133.69475936 -0.0977191 138.68047333 -0.10831261 C143.37213688 -0.11800882 148.0637041 -0.1180623 152.75537109 -0.11079597 C154.4742268 -0.10975195 156.19308854 -0.11210222 157.9119339 -0.11815643 C160.26496933 -0.12590537 162.61767451 -0.12121251 164.97070312 -0.11352539 C166.2855154 -0.11407016 167.60032768 -0.11461493 168.95498276 -0.1151762 C181.41034985 0.70399086 190.29334932 6.16516653 198.73931885 15.13371277 C203.91780121 21.64410932 206.64449782 28.75390465 206.73931885 37.13371277 C205.51064044 41.09591882 204.34582564 43.01223818 200.73931885 45.13371277 C198.00571617 45.96189172 195.55252937 46.26052461 192.70312691 46.26793385 C191.90464872 46.27239169 191.10617052 46.27684953 190.28349602 46.28144246 C189.41210389 46.2812581 188.54071177 46.28107374 187.64291382 46.28088379 C186.24756245 46.28639882 186.24756245 46.28639882 184.82402217 46.29202527 C181.69959076 46.30305925 178.57519261 46.30690543 175.45074463 46.31071472 C173.2136118 46.31697944 170.97648001 46.32362624 168.73934937 46.33062744 C162.65673634 46.34803278 156.57413117 46.35858732 150.49149942 46.36683297 C146.69297938 46.3719827 142.89446177 46.37805836 139.09594345 46.3843441 C128.57701257 46.40120997 118.05808282 46.41584621 107.5391407 46.42309284 C104.81110762 46.42500268 102.08307455 46.42692302 99.3550415 46.42887878 C98.33800505 46.42960439 98.33800505 46.42960439 97.30042242 46.43034466 C86.31158306 46.43864888 75.32285242 46.46399471 64.33406056 46.49645946 C53.04960165 46.52952583 41.76519597 46.54720825 30.48068225 46.55073708 C24.14575174 46.55309084 17.81099323 46.56209429 11.47610855 46.58719826 C5.51876172 46.61042541 -0.43829916 46.61473369 -6.39567947 46.60443687 C-8.5830251 46.60394015 -10.77038455 46.61030061 -12.95768738 46.62399292 C-15.94223961 46.641632 -18.92575667 46.63464477 -21.91030884 46.62145996 C-22.77723952 46.63242921 -23.64417021 46.64339845 -24.53737152 46.6547001 C-30.0470154 46.59587463 -33.01979576 45.71815055 -37.26068115 42.13371277 C-39.95347015 36.74813477 -38.08490405 30.07478639 -36.2958374 24.64933777 C-31.8501981 13.84559547 -23.8936303 7.04955774 -13.55755615 2.07902527 C-8.95510037 0.18481728 -4.99038939 0.006368 0 0 Z M-12.88568115 11.88371277 C-13.82669678 12.37355652 -14.7677124 12.86340027 -15.73724365 13.36808777 C-18.51304484 15.31028922 -20.28115572 17.40141006 -22.26068115 20.13371277 C-21.27068115 20.62871277 -21.27068115 20.62871277 -20.26068115 21.13371277 C-18.22086662 20.39393619 -18.22086662 20.39393619 -16.01068115 19.25871277 C-10.08768415 16.33806252 -4.47840816 16.00858448 2.06846619 16 C2.78453673 15.99773444 3.50060727 15.99546889 4.23837692 15.99313468 C6.62632145 15.98682895 9.01420873 15.98762184 11.40216064 15.9884491 C13.1191668 15.98545541 14.83617228 15.98205239 16.55317688 15.97827148 C21.21044003 15.96944716 25.86768481 15.96709399 30.52495551 15.9664557 C33.43806953 15.96574413 36.3511789 15.96360776 39.26429176 15.96095848 C49.43720419 15.95170918 59.61010353 15.94762294 69.78302002 15.94841003 C79.24872262 15.94901023 88.71436812 15.93846876 98.18005627 15.92266637 C106.31956267 15.90956478 114.45905046 15.90422726 122.59856731 15.90486544 C127.45413109 15.90511973 132.30964414 15.90230733 137.16519737 15.89168739 C141.73624349 15.88196266 146.30719086 15.88195708 150.87824059 15.88920403 C152.54907374 15.89024455 154.21991319 15.88791884 155.89073563 15.88184357 C166.8586664 15.8445697 177.34707798 16.20151352 187.73931885 20.13371277 C186.2383883 15.63092112 182.78280078 13.25459001 178.73931885 11.13371277 C169.63517011 7.8897239 160.53999932 7.71359474 151.003479 7.77726746 C149.45794051 7.7764747 147.91240224 7.77437169 146.36686707 7.77107239 C142.20345025 7.76597809 138.04028447 7.77939559 133.87690783 7.79659939 C129.4966094 7.81175097 125.11631268 7.81046416 120.73599243 7.81126404 C113.3809385 7.81494605 106.02597848 7.82985625 98.67095947 7.85246277 C89.26745737 7.88130906 79.86403083 7.89168709 70.46048927 7.89614487 C62.33105548 7.90014462 54.2016377 7.91264331 46.07221556 7.92649174 C43.48111349 7.93056383 40.89001197 7.93350304 38.29890823 7.93628693 C34.20629525 7.94123258 30.11372632 7.95152227 26.02113533 7.96572495 C24.53055661 7.97019241 23.03997202 7.97307317 21.54938698 7.97413254 C3.7818544 7.19237648 3.7818544 7.19237648 -12.88568115 11.88371277 Z " fill="#0A172D" transform="translate(47.26068115234375,61.86628723144531)"/>
<path d="M0 0 C19.06365659 -0.1147953 38.126901 -0.13978635 57.19085801 -0.13830101 C63.70905556 -0.13864284 70.22719986 -0.15031728 76.74538058 -0.16423243 C83.11484686 -0.17733442 89.48428948 -0.18267206 95.85376912 -0.18203336 C99.62345277 -0.1817806 103.39307085 -0.18451211 107.16274071 -0.19521141 C111.3378131 -0.20675525 115.51272115 -0.20212939 119.68780518 -0.19610596 C121.51661476 -0.20453522 121.51661476 -0.20453522 123.38237 -0.21313477 C142.08538703 -0.1447155 142.08538703 -0.1447155 146.2769165 4.04681396 C143.6369165 4.04681396 140.9969165 4.04681396 138.2769165 4.04681396 C138.2769165 3.38681396 138.2769165 2.72681396 138.2769165 2.04681396 C85.8069165 2.37681396 33.3369165 2.70681396 -20.7230835 3.04681396 C-20.7230835 3.70681396 -20.7230835 4.36681396 -20.7230835 5.04681396 C-26.3330835 5.04681396 -31.9430835 5.04681396 -37.7230835 5.04681396 C-37.7230835 5.70681396 -37.7230835 6.36681396 -37.7230835 7.04681396 C-36.40309939 7.0426659 -36.40309939 7.0426659 -35.05644894 7.03843403 C-13.64022806 6.97216891 7.77597513 6.92253078 29.19227695 6.89137745 C39.5490595 6.87591134 49.9057736 6.85482665 60.26251221 6.82049561 C69.28988486 6.79058549 78.31720793 6.7712371 87.34462875 6.76454848 C92.12418406 6.76063897 96.90359754 6.7514563 101.68310738 6.72962379 C106.1834958 6.70923322 110.68368422 6.70298538 115.18411446 6.70749092 C116.83405647 6.70666687 118.48400531 6.70071653 120.13390732 6.68919754 C122.39129852 6.67421284 124.64794022 6.67788165 126.90534973 6.68605042 C128.16728433 6.68328504 129.42921892 6.68051966 130.72939396 6.67767048 C134.85535337 7.1070042 137.56778241 8.24373103 141.2769165 10.04681396 C138.2769165 11.04681396 138.2769165 11.04681396 135.2769165 10.04681396 C132.95126411 9.9479815 130.62281968 9.91176719 128.29507446 9.90637207 C127.58015607 9.90340095 126.86523767 9.90042983 126.12865508 9.89736867 C123.72672914 9.88867892 121.32485302 9.88717317 118.9229126 9.88568115 C117.20310357 9.88105305 115.48329557 9.8760284 113.76348877 9.87063599 C109.08552575 9.85750636 104.40757709 9.85106555 99.72959852 9.84662533 C96.80596314 9.84369459 93.88233168 9.8395897 90.95869827 9.83512115 C81.80862934 9.82144271 72.65856937 9.81177861 63.50849092 9.80791926 C52.95177993 9.8034421 42.39519864 9.78591154 31.83852708 9.75691867 C23.67618272 9.73528138 15.51387479 9.72521383 7.35150206 9.72387815 C2.47804189 9.72283128 -2.39529641 9.71694913 -7.26872635 9.69905853 C-11.85699566 9.68254321 -16.44505196 9.68043913 -21.03334045 9.68919754 C-22.71307827 9.68996615 -24.3928277 9.68564849 -26.07253647 9.67573929 C-41.5053144 9.56288762 -41.5053144 9.56288762 -54.7230835 17.04681396 C-55.3830835 17.04681396 -56.0430835 17.04681396 -56.7230835 17.04681396 C-57.0324585 17.83056396 -57.3418335 18.61431396 -57.6605835 19.42181396 C-58.7230835 22.04681396 -58.7230835 22.04681396 -59.7230835 24.04681396 C-60.3830835 24.04681396 -61.0430835 24.04681396 -61.7230835 24.04681396 C-60.76785143 21.40155593 -59.86609043 19.23558312 -58.1605835 16.98431396 C-56.6404613 14.93545362 -56.20219928 13.52224552 -55.7230835 11.04681396 C-55.3930835 10.05681396 -55.0630835 9.06681396 -54.7230835 8.04681396 C-55.7130835 7.38681396 -56.7030835 6.72681396 -57.7230835 6.04681396 C-48.56797133 1.37742126 -40.65011476 0.27667938 -30.48480225 0.24603271 C-28.87415839 0.22357453 -27.263537 0.19946117 -25.65293884 0.17393494 C-20.82287437 0.10747379 -15.99317244 0.08052136 -11.1627121 0.0613327 C-7.44176979 0.04562653 -3.72090311 0.02316839 0 0 Z " fill="#434853" transform="translate(83.72308349609375,115.95318603515625)"/>
<path d="M0 0 C53.13 0 106.26 0 161 0 C161 0.66 161 1.32 161 2 C162.98 2 164.96 2 167 2 C166.67 2.66 166.34 3.32 166 4 C165.01 3.67 164.02 3.34 163 3 C163 3.66 163 4.32 163 5 C164.98 5.495 164.98 5.495 167 6 C167 6.66 167 7.32 167 8 C159.25 7.125 159.25 7.125 157 6 C154.74513893 5.89336953 152.48705741 5.85328195 150.22970581 5.84178162 C149.52562595 5.83684364 148.8215461 5.83190566 148.09613049 5.82681805 C145.72538502 5.81140037 143.35466671 5.80307092 140.98388672 5.79467773 C139.28902953 5.78510256 137.59417475 5.7750927 135.89932251 5.76467896 C131.28803311 5.73758471 126.67673344 5.71659966 122.06540823 5.69667697 C117.25005807 5.67484524 112.43473977 5.64744282 107.61941528 5.62062073 C98.49634612 5.57065572 89.37325931 5.52573105 80.25015557 5.48259836 C69.86576338 5.43325849 59.48140315 5.37832833 49.09704185 5.32291877 C27.73139099 5.20904029 6.36570963 5.10221406 -15 5 C-15 4.34 -15 3.68 -15 3 C-9.39 3 -3.78 3 2 3 C2 2.34 2 1.68 2 1 C1.34 0.67 0.68 0.34 0 0 Z " fill="#060E1E" transform="translate(61,118)"/>
<path d="M0 0 C0.7328126 -0.00226556 1.4656252 -0.00453111 2.22064424 -0.00686532 C4.67708043 -0.0131972 7.13346133 -0.01237647 9.58990479 -0.0115509 C11.35089184 -0.01454295 13.11187824 -0.01794558 14.87286377 -0.02172852 C19.65813891 -0.03056929 24.44339618 -0.0329067 29.2286787 -0.0335443 C33.22453508 -0.0344938 37.2203873 -0.03817268 41.21624207 -0.0417164 C50.646137 -0.04986168 60.07602237 -0.05230061 69.50592041 -0.05158997 C79.22839315 -0.05098952 88.95081035 -0.06153451 98.67326903 -0.07733363 C107.02330211 -0.09041828 115.37331705 -0.09577345 123.7233603 -0.09513456 C128.70908449 -0.09487979 133.69475936 -0.0977191 138.68047333 -0.10831261 C143.37213688 -0.11800882 148.0637041 -0.1180623 152.75537109 -0.11079597 C154.4742268 -0.10975195 156.19308854 -0.11210222 157.9119339 -0.11815643 C160.26496933 -0.12590537 162.61767451 -0.12121251 164.97070312 -0.11352539 C166.2855154 -0.11407016 167.60032768 -0.11461493 168.95498276 -0.1151762 C181.79520386 0.72930202 189.67985961 6.44554285 198.73931885 15.13371277 C198.40931885 15.79371277 198.07931885 16.45371277 197.73931885 17.13371277 C196.08931885 15.81371277 194.43931885 14.49371277 192.73931885 13.13371277 C192.40931885 13.79371277 192.07931885 14.45371277 191.73931885 15.13371277 C191.07931885 15.13371277 190.41931885 15.13371277 189.73931885 15.13371277 C190.32860896 18.16434764 190.98976447 21.13549527 191.73931885 24.13371277 C189.09931885 23.47371277 186.45931885 22.81371277 183.73931885 22.13371277 C184.06931885 21.14371277 184.39931885 20.15371277 184.73931885 19.13371277 C185.72931885 18.63871277 185.72931885 18.63871277 186.73931885 18.13371277 C176.46299896 8.79435146 164.25002369 8.68882394 151.003479 8.77726746 C149.45794051 8.7764747 147.91240224 8.77437169 146.36686707 8.77107239 C142.20345025 8.76597809 138.04028447 8.77939559 133.87690783 8.79659939 C129.4966094 8.81175097 125.11631268 8.81046416 120.73599243 8.81126404 C113.3809385 8.81494605 106.02597848 8.82985625 98.67095947 8.85246277 C89.26745737 8.88130906 79.86403083 8.89168709 70.46048927 8.89614487 C62.33105548 8.90014462 54.2016377 8.91264331 46.07221556 8.92649174 C43.48111349 8.93056383 40.89001197 8.93350304 38.29890823 8.93628693 C34.20629525 8.94123258 30.11372632 8.95152227 26.02113533 8.96572495 C24.53055661 8.97019241 23.03997202 8.97307317 21.54938698 8.97413254 C0.60320533 8.38854316 0.60320533 8.38854316 -18.26068115 16.13371277 C-20.30732484 18.37292906 -21.69018516 20.51621945 -23.26068115 23.13371277 C-23.92068115 23.13371277 -24.58068115 23.13371277 -25.26068115 23.13371277 C-23.67682733 17.32624876 -19.61749249 13.30463639 -14.67045116 10.10527611 C-6.87258842 5.96218507 1.4328279 6.58653146 10.00567627 6.64787292 C11.75094385 6.64572447 13.49621002 6.64184292 15.24147034 6.6363678 C19.96034036 6.62671172 24.67882938 6.64192946 29.39765334 6.66227388 C34.3435938 6.67989752 39.28952343 6.67631882 44.23548889 6.67555237 C52.53655336 6.67742252 60.83747116 6.69475039 69.13848877 6.72209167 C78.73103939 6.75357045 88.32342966 6.76408662 97.9160282 6.76262057 C108.14017258 6.76126913 118.36425529 6.77515087 128.58838105 6.79351377 C131.53064029 6.79777288 134.47288956 6.79919563 137.4151516 6.79999161 C142.03877935 6.80200256 146.66227283 6.81422916 151.28585625 6.83432388 C152.98135811 6.84015809 154.67687543 6.84262781 156.37238693 6.84146881 C158.68866184 6.84048473 161.00456282 6.85182422 163.32078552 6.86628723 C164.61619861 6.86963892 165.91161169 6.87299061 167.24627972 6.87644386 C170.74543605 7.13416331 173.45179272 7.96537175 176.73931885 9.13371277 C177.95619385 9.13371277 179.17306885 9.13371277 180.42681885 9.13371277 C183.73931885 9.13371277 183.73931885 9.13371277 186.73931885 11.13371277 C186.24431885 10.67996277 185.74931885 10.22621277 185.23931885 9.75871277 C183.73931885 8.13371277 183.73931885 8.13371277 183.73931885 6.13371277 C178.21036877 3.7940489 173.63845453 2.69887293 167.60211182 2.77294922 C166.82348502 2.77038594 166.04485823 2.76782267 165.24263668 2.76518172 C162.6553769 2.76027319 160.0687116 2.77668769 157.48150635 2.7931366 C155.61828119 2.7939835 153.75505502 2.79350648 151.89183044 2.79180908 C146.84898825 2.7909502 141.80636119 2.80855878 136.76356888 2.82953095 C131.4878372 2.84831546 126.2121003 2.8500496 120.93634033 2.85360718 C110.95279814 2.86292242 100.96935478 2.8875292 90.98585606 2.91765565 C79.61709787 2.95121583 68.2483349 2.96768974 56.87953949 2.98274195 C33.4994112 3.01407918 10.11937057 3.06682959 -13.26068115 3.13371277 C-9.48859004 -0.63837835 -5.13086702 0.00654725 0 0 Z " fill="#3E424D" transform="translate(47.26068115234375,61.86628723144531)"/>
<path d="M0 0 C1.12378126 -0.00256327 1.12378126 -0.00256327 2.27026516 -0.00517833 C4.76377736 -0.00845493 7.25701641 0.00250002 9.75050354 0.01345825 C11.54461663 0.01402276 13.33873019 0.01370503 15.13284302 0.01257324 C19.99181835 0.01200028 24.8506946 0.02374543 29.70964694 0.03772116 C34.79186928 0.05023796 39.87409397 0.05139977 44.95632935 0.05377197 C54.57509481 0.05998394 64.19381472 0.07639095 73.81256014 0.09647095 C84.76534929 0.11883874 95.71814064 0.1298256 106.67094696 0.13986182 C129.19692139 0.16075741 151.72285542 0.19592791 174.24879456 0.24050903 C174.24879456 0.57050903 174.24879456 0.90050903 174.24879456 1.24050903 C161.87379456 1.73550903 161.87379456 1.73550903 149.24879456 2.24050903 C151.22879456 3.23050903 151.22879456 3.23050903 153.24879456 4.24050903 C140.37879456 4.24050903 127.50879456 4.24050903 114.24879456 4.24050903 C114.57879456 3.58050903 114.90879456 2.92050903 115.24879456 2.24050903 C113.92879456 2.24050903 112.60879456 2.24050903 111.24879456 2.24050903 C112.23879456 3.23050903 112.23879456 3.23050903 113.24879456 4.24050903 C112.39679442 4.24547425 112.39679442 4.24547425 111.52758217 4.25053978 C97.67095445 4.3319593 83.81443506 4.42423501 69.95795631 4.52803612 C63.25690925 4.57803823 56.55587786 4.62424089 49.85475159 4.66238403 C43.38373838 4.69934922 36.91285418 4.74573969 30.44195175 4.79857254 C27.97733709 4.81705684 25.51269484 4.83218663 23.04803848 4.843853 C19.58699173 4.8608176 16.1262366 4.88987735 12.66529846 4.92166138 C11.65396851 4.92382156 10.64263855 4.92598175 9.60066223 4.9282074 C3.99062706 4.99370833 -1.12397027 5.55154007 -6.57444191 6.91187477 C-8.94523758 7.2698028 -10.48874944 6.97514195 -12.75120544 6.24050903 C-12.42120544 5.25050903 -12.09120544 4.26050903 -11.75120544 3.24050903 C-13.07120544 3.57050903 -14.39120544 3.90050903 -15.75120544 4.24050903 C-14.75120544 2.24050903 -14.75120544 2.24050903 -11.67315578 1.13054085 C-7.79003947 0.12230221 -3.99553116 -0.03384408 0 0 Z " fill="#060F20" transform="translate(45.75120544433594,172.75949096679688)"/>
<path d="M0 0 C29.7 0 59.4 0 90 0 C89.67 0.66 89.34 1.32 89 2 C89.91962021 2.01213028 89.91962021 2.01213028 90.8578186 2.02450562 C97.24965855 2.11068889 103.64119329 2.21019853 110.03271484 2.31738281 C112.41677721 2.35562114 114.80089625 2.39048293 117.18505859 2.421875 C120.61576569 2.46763683 124.04608432 2.52561389 127.4765625 2.5859375 C129.07064438 2.60326431 129.07064438 2.60326431 130.69692993 2.62094116 C142.52597304 2.8558433 142.52597304 2.8558433 146.875 6.625 C147.431875 7.305625 147.431875 7.305625 148 8 C146.83534116 7.67551565 145.67068232 7.3510313 144.47073078 7.0167141 C140.42103274 6.00910885 136.65431539 5.74363188 132.4683075 5.73257446 C131.75461166 5.72804335 131.04091582 5.72351224 130.30559283 5.71884382 C127.93762897 5.7062833 125.56989757 5.70781472 123.2019043 5.70947266 C121.494453 5.7034822 119.7870044 5.69667546 118.07955933 5.68911743 C113.45752647 5.6715034 108.83556774 5.66676401 104.21350455 5.66548586 C101.32148013 5.66406115 98.42947438 5.65978551 95.53745461 5.65449142 C85.4358463 5.6360067 75.33429067 5.6278189 65.23266602 5.62939453 C55.8361501 5.63059566 46.43986397 5.60949488 37.04340619 5.5779072 C28.95905251 5.55170476 20.8747737 5.54102889 12.79037791 5.54230535 C7.96943465 5.54281379 3.14869576 5.53719573 -1.67220497 5.51594925 C-6.20890111 5.49649973 -10.74519928 5.49648802 -15.28190994 5.51098251 C-16.93984882 5.51306337 -18.59781305 5.50841315 -20.25570869 5.4962616 C-30.72318495 5.42455397 -39.86092406 6.08144089 -48.9375 11.875 C-51.35267429 14.36336139 -53.09580874 17.11088223 -55 20 C-55.66 20 -56.32 20 -57 20 C-54.83670862 13.11680015 -49.11632624 8.50735006 -43 5 C-38.17157382 3.05617083 -33.68452118 2.66450615 -28.5390625 2.5859375 C-27.74849457 2.56657135 -26.95792664 2.5472052 -26.1434021 2.5272522 C-23.63737517 2.46783947 -21.13130135 2.42122573 -18.625 2.375 C-16.91794957 2.33678487 -15.21091769 2.29773111 -13.50390625 2.2578125 C-9.33608956 2.16216989 -5.1681827 2.07799885 -1 2 C-0.67 1.34 -0.34 0.68 0 0 Z " fill="#283040" transform="translate(79,11)"/>
<path d="M0 0 C16.53366957 -0.07019213 33.06729054 -0.12303803 49.60107327 -0.15543652 C57.2786146 -0.17088193 64.95606315 -0.19192675 72.63354492 -0.22631836 C79.3280257 -0.25629219 86.02243926 -0.2755919 92.71698529 -0.28226548 C96.259192 -0.28616428 99.80120648 -0.29527794 103.34335136 -0.31719017 C107.30502707 -0.34149714 111.26651755 -0.34196488 115.22827148 -0.34057617 C116.97507706 -0.35675491 116.97507706 -0.35675491 118.75717163 -0.3732605 C125.49318604 -0.34776051 130.73282423 0.49650354 137 3 C136.67 3.99 136.34 4.98 136 6 C136.99 6.33 137.98 6.66 139 7 C139 7.66 139 8.32 139 9 C138.14728516 8.76603516 138.14728516 8.76603516 137.27734375 8.52734375 C134.30469711 7.83899504 131.35283438 7.62710124 128.31640625 7.37890625 C126 7 126 7 123.73447895 5.99372292 C120.63006837 4.86556505 118.23069276 4.73878305 114.93193054 4.7215271 C113.71341904 4.71036362 112.49490753 4.69920013 111.23947144 4.68769836 C109.89752228 4.68533367 108.55557278 4.68315797 107.21362305 4.68115234 C105.79417858 4.67184971 104.37473957 4.66168054 102.95530701 4.65071106 C99.10862989 4.62343467 95.26198935 4.60826868 91.415241 4.59528303 C87.39265487 4.57964215 83.37014331 4.55285498 79.34761047 4.5272522 C71.73337209 4.48048136 64.11911965 4.44372905 56.50481111 4.41057932 C47.83492285 4.37234596 39.16510952 4.32293898 30.49528444 4.27259517 C12.66357781 4.16930053 -5.16817456 4.0800321 -23 4 C-23 3.67 -23 3.34 -23 3 C-10.625 2.505 -10.625 2.505 2 2 C1.34 1.34 0.68 0.68 0 0 Z " fill="#050C1C" transform="translate(95,64)"/>
<path d="M0 0 C4.11324024 4.48717117 5.03663502 10.29701189 5.4375 16.1875 C5 20 5 20 2.75 22.9375 C-0.86017462 25.64513096 -3.62787515 26.12345086 -8.06298256 26.13142776 C-8.86741094 26.13526891 -9.67183933 26.13911005 -10.50064433 26.1430676 C-11.81766166 26.14176787 -11.81766166 26.14176787 -13.1612854 26.14044189 C-14.56699549 26.14489858 -14.56699549 26.14489858 -16.00110376 26.1494453 C-19.14869405 26.15813343 -22.29624632 26.15964061 -25.44384766 26.16113281 C-27.6973224 26.16576071 -29.95079636 26.17078534 -32.20426941 26.17617798 C-38.33000423 26.18930219 -44.4557281 26.19574638 -50.58147478 26.20018864 C-54.40475519 26.20311787 -58.22803259 26.20722228 -62.05131149 26.21169281 C-72.63373247 26.22379833 -83.21615083 26.23418281 -93.79857826 26.2375679 C-94.81398732 26.23789725 -94.81398732 26.23789725 -95.84990969 26.23823325 C-96.86774934 26.23856067 -96.86774934 26.23856067 -97.90615141 26.2388947 C-99.28118428 26.23933817 -100.65621714 26.23978473 -102.03125 26.24023438 C-103.05434623 26.24056652 -103.05434623 26.24056652 -104.09811108 26.24090537 C-115.16399602 26.24485823 -126.22981532 26.26232928 -137.29567488 26.2855939 C-148.6524408 26.30927795 -160.0091626 26.32151003 -171.36595762 26.32293582 C-177.74432181 26.3239868 -184.12259327 26.32995707 -190.5009346 26.34775543 C-196.49434857 26.36415507 -202.48759928 26.36643133 -208.4810276 26.35761642 C-210.68617373 26.35684182 -212.89132836 26.36124397 -215.09645271 26.37107468 C-218.09539412 26.38366541 -221.09374583 26.37798821 -224.09268188 26.36749268 C-224.97515488 26.37554908 -225.85762788 26.38360548 -226.76684248 26.39190602 C-229.18869972 26.3719368 -229.18869972 26.3719368 -233 26 C-233.66 25.01 -234.32 24.02 -235 23 C-233.80194575 23.00092179 -232.60389151 23.00184359 -231.36953259 23.00279331 C-202.9479328 23.02443814 -174.52633322 23.04093399 -146.10472701 23.05106533 C-142.60863635 23.05231608 -139.11254571 23.0536104 -135.61645508 23.05493164 C-134.57241561 23.05532511 -134.57241561 23.05532511 -133.50728444 23.05572652 C-122.22845303 23.06008113 -110.94962671 23.06796754 -99.67079832 23.0771528 C-88.10284693 23.08649514 -76.53489913 23.09198196 -64.96694404 23.09408849 C-58.46723768 23.09539501 -51.96754286 23.09847715 -45.46784019 23.10573006 C-39.35550894 23.11249572 -33.24319402 23.11461583 -27.13085938 23.11310768 C-24.88260115 23.11338376 -22.63434241 23.11538565 -20.38608742 23.11920547 C-17.32615279 23.1241512 -14.26628056 23.12299498 -11.2063446 23.12025452 C-10.30849218 23.12316736 -9.41063975 23.1260802 -8.48557967 23.12908131 C-7.2591732 23.12609474 -7.2591732 23.12609474 -6.00799084 23.12304783 C-4.94800154 23.12361741 -4.94800154 23.12361741 -3.86659831 23.1241985 C-1.76990424 23.06360501 -1.76990424 23.06360501 1 22 C1.02716824 19.45826023 1.04691969 16.91681585 1.0625 14.375 C1.07087891 13.66214844 1.07925781 12.94929687 1.08789062 12.21484375 C1.10710296 8.02655562 0.8267327 4.1271538 0 0 Z " fill="#BCBEC3" transform="translate(248,137)"/>
<path d="M0 0 C2.51384183 4.47939717 3.0661011 8.90195285 3 14 C1.7809991 17.07958121 0.96753915 18.42157282 -1.85606742 20.10961902 C-4.13457344 21.05588871 -5.66219514 21.24874493 -8.1154213 21.24609566 C-9.33958925 21.2520688 -9.33958925 21.2520688 -10.58848786 21.25816262 C-11.4795365 21.25233693 -12.37058514 21.24651125 -13.28863525 21.24050903 C-14.2394371 21.24221788 -15.19023895 21.24392673 -16.16985297 21.24568737 C-19.36363691 21.24898805 -22.5572119 21.23796895 -25.75097656 21.22705078 C-28.03725174 21.22648679 -30.32352728 21.22680298 -32.60980225 21.22793579 C-38.82427481 21.22851079 -45.03867052 21.21673269 -51.25312519 21.20278788 C-57.74473496 21.19030499 -64.23634639 21.18911195 -70.72796631 21.18673706 C-81.62627537 21.1812225 -92.52455598 21.16872092 -103.42285156 21.15087891 C-114.64811054 21.13252071 -125.87336185 21.11836391 -137.09863281 21.10986328 C-137.79056489 21.10933783 -138.48249697 21.10881239 -139.19539669 21.10827102 C-142.66661864 21.10566094 -146.13784064 21.10313353 -149.60906267 21.10064721 C-178.40606047 21.07991398 -207.20302956 21.04453913 -236 21 C-236.33 20.34 -236.66 19.68 -237 19 C-235.80286755 18.99853344 -234.60573509 18.99706688 -233.3723259 18.99555588 C-204.96675256 18.95986831 -176.56127075 18.90364806 -148.15579234 18.82207905 C-144.66099089 18.81206137 -141.16618897 18.80221727 -137.67138672 18.79248047 C-136.97562272 18.7905391 -136.27985872 18.78859772 -135.56301096 18.78659752 C-124.29132912 18.75556058 -113.01966765 18.73859216 -101.74795112 18.72680578 C-90.1855823 18.71440296 -78.62333634 18.68662317 -67.06103253 18.64538693 C-60.56517516 18.6227093 -54.06947073 18.60709309 -47.57357025 18.60811615 C-41.46356033 18.60885904 -35.35388934 18.59105788 -29.24396706 18.55883217 C-26.99775804 18.5502905 -24.7515112 18.54861194 -22.50529289 18.55419731 C-19.44532764 18.5607945 -16.38645434 18.54301911 -13.32659912 18.51898193 C-12.43165953 18.52674235 -11.53671995 18.53450277 -10.61466098 18.54249835 C-5.70037504 18.4804674 -5.70037504 18.4804674 -1.44150162 16.18338394 C0.65801987 13.00332403 0.38934648 10.51235484 0.25 6.75 C0.21390625 5.48671875 0.1778125 4.2234375 0.140625 2.921875 C0.09421875 1.95765625 0.0478125 0.9934375 0 0 Z " fill="#A7AAB0" transform="translate(250,33)"/>
<path d="M0 0 C1.24673996 -0.00191345 2.49347992 -0.0038269 3.77799988 -0.00579834 C7.06972371 -0.00750018 10.36125568 0.00050001 13.6529541 0.01171875 C16.34466673 0.01693683 19.03624627 0.00729478 21.72794056 -0.00226212 C24.94363853 -0.01121871 28.1592979 -0.00495435 31.375 0 C33.18433769 -0.00607269 33.18433769 -0.00607269 35.03022766 -0.01226807 C36.1453624 -0.00596375 37.26049713 0.00034058 38.40942383 0.00683594 C39.39123123 0.00842712 40.37303864 0.01001831 41.38459778 0.01165771 C43.85546875 0.265625 43.85546875 0.265625 46.85546875 2.265625 C46.52546875 2.595625 46.19546875 2.925625 45.85546875 3.265625 C85.12546875 3.595625 124.39546875 3.925625 164.85546875 4.265625 C164.85546875 4.595625 164.85546875 4.925625 164.85546875 5.265625 C163.50871032 5.26644215 163.50871032 5.26644215 162.13474464 5.26727581 C140.26670372 5.28225707 118.39886636 5.32475839 96.5309391 5.39771557 C85.9556613 5.43233706 75.38051347 5.45771737 64.80517578 5.46118164 C55.58539477 5.46422548 46.36584539 5.48477244 37.14615381 5.52614957 C32.26642572 5.54744309 27.38702665 5.56009892 22.50725174 5.55177879 C17.90897197 5.54421558 13.31135759 5.56015338 8.71319962 5.59368515 C7.03068502 5.60189112 5.34810392 5.60170071 3.66559601 5.59222221 C-5.48102552 5.54581871 -13.38924059 5.73448529 -21.14453125 11.265625 C-21.80453125 11.925625 -22.46453125 12.585625 -23.14453125 13.265625 C-24.13453125 13.265625 -25.12453125 13.265625 -26.14453125 13.265625 C-25.50706385 9.28145373 -24.04067386 5.09895969 -21.14453125 2.265625 C-14.11564295 -0.05431625 -7.35245439 -0.02488591 0 0 Z " fill="#151C2B" transform="translate(51.14453125,63.734375)"/>
<path d="M0 0 C4.62469309 3.99405312 5.43124625 9.01109528 5.96484375 14.8515625 C6.01187367 17.72561323 5.51073585 19.55404671 4 22 C0.35624551 25.40083753 -3.17639387 26.1236617 -8.04736519 26.12863445 C-8.84831018 26.1318589 -9.64925516 26.13508335 -10.47447121 26.1384055 C-11.34859182 26.1368569 -12.22271242 26.1353083 -13.12332153 26.13371277 C-14.52290629 26.1371111 -14.52290629 26.1371111 -15.95076549 26.14057809 C-19.08453976 26.14692008 -22.2182708 26.14608861 -25.35205078 26.14526367 C-27.59567318 26.14825495 -29.83929506 26.1516574 -32.08291626 26.15544128 C-38.18179548 26.16428649 -44.28066068 26.16661956 -50.37954569 26.16725707 C-55.464541 26.16820547 -60.54953303 26.1718828 -65.63452709 26.17542917 C-76.93925538 26.18310948 -88.24397703 26.1860976 -99.54870714 26.18542381 C-100.22695507 26.18538386 -100.90520301 26.1853439 -101.60400391 26.18530273 C-102.28307745 26.18526185 -102.96215099 26.18522097 -103.66180252 26.18517885 C-114.67917283 26.18477197 -125.69650903 26.19435266 -136.71386947 26.2084411 C-148.02091156 26.22278623 -159.3279375 26.22952899 -170.63499057 26.22884732 C-176.98538608 26.22859169 -183.33574296 26.23147893 -189.68613052 26.24202538 C-195.65325447 26.25166486 -201.62030251 26.25181425 -207.58742905 26.24450874 C-209.78289653 26.24345786 -211.97836863 26.24585535 -214.17382812 26.2518692 C-217.15952498 26.25952102 -220.14495515 26.25498998 -223.13064575 26.24723816 C-224.44851883 26.2549535 -224.44851883 26.2549535 -225.7930156 26.26282471 C-231.77172833 26.22827167 -231.77172833 26.22827167 -234 24 C-232.8140968 23.99761165 -231.62819361 23.99522329 -230.40635395 23.99276257 C-202.26125643 23.93541419 -174.11622913 23.86269183 -145.97122221 23.77101372 C-142.50775202 23.75974543 -139.04428142 23.748607 -135.58081055 23.73754883 C-134.54652986 23.7342433 -134.54652986 23.7342433 -133.49135461 23.730871 C-122.32381972 23.69548969 -111.1562849 23.67063027 -99.98871473 23.64965298 C-88.53144637 23.62789754 -77.07426489 23.59462668 -65.61705512 23.55129844 C-59.18099389 23.52732482 -52.74501335 23.50862316 -46.30890846 23.50238609 C-40.25393529 23.496354 -34.19916868 23.47642203 -28.14427185 23.44572449 C-25.91944498 23.43691415 -23.69459116 23.43322784 -21.46974754 23.43499184 C-18.43656644 23.43663775 -15.40402013 23.42000331 -12.3709259 23.39872742 C-11.04455863 23.40599878 -11.04455863 23.40599878 -9.69139606 23.41341704 C-4.98532032 23.35878639 -1.80956823 23.08354884 2 20 C3.78125392 16.43749215 3.51247263 12.62680264 2.328125 8.8671875 C1.79382666 7.50119834 1.23793501 6.14336809 0.65625 4.796875 C0 3 0 3 0 0 Z " fill="#A9ACB1" transform="translate(248,82)"/>
<path d="M0 0 C1.73878012 -0.00350525 3.47755702 -0.00916837 5.21632385 -0.01681519 C9.91900648 -0.03101586 14.62110104 -0.01404734 19.32372737 0.00946999 C24.25712105 0.02964254 29.19049183 0.02369604 34.12391663 0.0213623 C42.40823 0.02141581 50.69231482 0.04113314 58.9765625 0.07324219 C68.53726514 0.11011992 78.09766841 0.11891865 87.6584329 0.11194468 C96.87579488 0.10562615 106.09305483 0.11641972 115.31039619 0.13591003 C119.22362288 0.14405813 123.13679722 0.14679836 127.05003166 0.1452179 C131.66388178 0.14433504 136.2774501 0.15866248 140.89122581 0.18444443 C142.57859175 0.19156997 144.26598774 0.19370739 145.95336533 0.19032669 C166.64698837 0.15679206 166.64698837 0.15679206 173.42211914 5.80273438 C173.87586914 6.40085938 174.32961914 6.99898437 174.79711914 7.61523438 C168.79711914 5.61523438 168.79711914 5.61523438 166.0494194 4.56205654 C162.35316497 3.48598873 159.23419642 3.35491099 155.38531494 3.34107971 C154.29790012 3.33322469 154.29790012 3.33322469 153.18851733 3.32521099 C150.77055981 3.31026476 148.35281491 3.30950703 145.93481445 3.30883789 C144.19647873 3.30121274 142.45814638 3.29278463 140.71981812 3.28361511 C136.00476977 3.26169734 131.28978626 3.25287478 126.57469273 3.24778867 C123.6260686 3.24414164 120.67746136 3.23789976 117.72884369 3.23078728 C107.43388627 3.20630148 97.13897918 3.19324292 86.84399414 3.18969727 C77.26114032 3.18606348 67.67860706 3.15617706 58.09585118 3.11429268 C49.85783905 3.07955354 41.61993296 3.06414819 33.3818481 3.06345123 C28.46639867 3.06265961 23.55127588 3.05397368 18.6359024 3.02545357 C14.00971403 2.99921102 9.38412167 2.9971021 4.75789261 3.01310921 C3.06566438 3.01491883 1.37340139 3.00827712 -0.31875229 2.9922905 C-11.16903068 2.89608039 -19.64110337 3.65799792 -28.07788086 11.17773438 C-28.77913086 11.98210937 -29.48038086 12.78648437 -30.20288086 13.61523438 C-31.53621419 14.94856771 -32.86954753 16.28190104 -34.20288086 17.61523438 C-33.59965731 14.22964218 -32.42949648 12.2806068 -30.20288086 9.67773438 C-29.66663086 9.02933594 -29.13038086 8.3809375 -28.57788086 7.71289062 C-19.7630648 -0.07256369 -11.21741978 -0.09529195 0 0 Z " fill="#B1B3B8" transform="translate(56.202880859375,177.384765625)"/>
<path d="M0 0 C59.4 0 118.8 0 180 0 C180.33 1.32 180.66 2.64 181 4 C166.04814058 3.89250128 151.0963281 3.77969478 136.14455605 3.66066074 C129.20136746 3.60550686 122.25817373 3.55205535 115.31494141 3.50268555 C108.61055182 3.45500916 101.90621592 3.40249071 95.20188522 3.34705925 C92.64794508 3.32672695 90.09399163 3.30799934 87.54002762 3.29092598 C83.95453348 3.26667888 80.3691297 3.23665354 76.78369141 3.20532227 C75.7349585 3.1995668 74.68622559 3.19381134 73.60571289 3.18788147 C68.08713961 3.13330384 62.68148957 2.83525444 57.1962986 2.22863865 C54.40103701 1.93764687 51.62521674 1.8404105 48.81591797 1.79467773 C47.71553192 1.77473251 46.61514587 1.75478729 45.48141479 1.73423767 C43.75424728 1.70916893 43.75424728 1.70916893 41.9921875 1.68359375 C40.7855545 1.66281265 39.57892151 1.64203156 38.33572388 1.62062073 C34.51553544 1.55570988 30.69528361 1.49651447 26.875 1.4375 C24.27082702 1.39425907 21.66666023 1.35064308 19.0625 1.30664062 C12.70839859 1.20008918 6.35423539 1.09821883 0 1 C0 0.67 0 0.34 0 0 Z " fill="#2E323E" transform="translate(41,8)"/>
<path d="M0 0 C35.97 0 71.94 0 109 0 C108.67 0.66 108.34 1.32 108 2 C99.585 2.495 99.585 2.495 91 3 C91 3.33 91 3.66 91 4 C61.63 4 32.26 4 2 4 C2 3.34 2 2.68 2 2 C1.34 2 0.68 2 0 2 C0 1.34 0 0.68 0 0 Z " fill="#091328" transform="translate(79,119)"/>
<path d="M0 0 C1.11085778 -0.00679667 1.11085778 -0.00679667 2.24415714 -0.01373065 C4.71506647 -0.02634731 7.18575461 -0.02475605 9.6566925 -0.02310181 C11.43281333 -0.02908888 13.20893156 -0.03589484 14.98504639 -0.04345703 C19.80347177 -0.0611088 24.62182609 -0.06581215 29.44028068 -0.0670886 C32.45390607 -0.06851155 35.46751349 -0.07278393 38.48113441 -0.07808304 C49.00418364 -0.09658257 59.52718224 -0.10475399 70.05024719 -0.10317993 C79.84320758 -0.10197946 89.63594723 -0.1230635 99.42885178 -0.15466726 C107.84861841 -0.18086655 116.26831313 -0.19154565 124.68812019 -0.19026911 C129.71141656 -0.18976043 134.73451684 -0.19539118 139.75777245 -0.21662521 C144.48649846 -0.23606847 149.21484261 -0.23609059 153.94358253 -0.22159195 C155.67247199 -0.21951009 157.40138572 -0.22416734 159.13023376 -0.23631287 C171.05775388 -0.31463256 181.74466135 0.61078755 191.44306946 8.26742554 C191.77306946 8.92742554 192.10306946 9.58742554 192.44306946 10.26742554 C190.46657411 9.2922962 188.50958612 8.30445687 186.58369446 7.23226929 C185.95978821 6.89324585 185.33588196 6.55422241 184.69306946 6.20492554 C184.07947571 5.86332397 183.46588196 5.52172241 182.83369446 5.16976929 C177.10166634 3.00620965 170.67802382 3.12056668 164.61871338 3.14044189 C163.87361041 3.1388819 163.12850744 3.13732191 162.3608256 3.13571465 C159.88683609 3.13175505 157.41290894 3.13487459 154.93891907 3.13803101 C153.15601567 3.13667474 151.37311255 3.13489354 149.59020996 3.13272095 C144.76391431 3.12817378 139.93764011 3.12992491 135.1113441 3.13310003 C130.05375153 3.13563728 124.99616076 3.13328233 119.93856812 3.13171387 C111.44747082 3.12989633 102.95638223 3.13228777 94.46528625 3.13705444 C84.65524852 3.14249801 74.84523157 3.14073204 65.03519434 3.13522804 C56.60356911 3.13068718 48.17195013 3.13005108 39.74032408 3.13266671 C34.70831783 3.13422389 29.67632134 3.1344385 24.64431572 3.13113022 C19.9140469 3.12823733 15.18380483 3.13025329 10.45353889 3.13602448 C8.71974863 3.13734438 6.98595611 3.13697103 5.25216675 3.13476181 C2.88156161 3.1320201 0.51104164 3.13546826 -1.85955811 3.14044189 C-2.88301672 3.13709581 -2.88301672 3.13709581 -3.92715126 3.13368213 C-8.24263541 3.15118448 -12.31029044 3.57525063 -16.55693054 4.26742554 C-11.22165967 0.71057829 -6.30275158 -0.02857392 0 0 Z " fill="#444752" transform="translate(47.55693054199219,170.73257446289063)"/>
<path d="M0 0 C1.74202408 -0.00378761 3.48404515 -0.00929128 5.22605896 -0.01637268 C9.93678587 -0.03028594 14.64714584 -0.01918707 19.35785222 -0.00266147 C24.29752564 0.01123204 29.23717869 0.00472415 34.17686462 0.00120544 C42.4695321 -0.00149303 50.76205454 0.01194856 59.0546875 0.03515625 C68.63132846 0.06177244 78.20772713 0.06350892 87.78439242 0.05176789 C97.0124305 0.04097588 106.24038124 0.04718779 115.4684124 0.06132317 C119.38888052 0.06706973 123.30928446 0.06701078 127.22975349 0.06225777 C131.84850809 0.05747326 136.46699851 0.06765058 141.0857029 0.08921242 C142.77713887 0.09476008 144.46860033 0.09526421 146.16003799 0.09025955 C148.47576122 0.08426874 150.79068691 0.09688327 153.1063385 0.11402893 C155.04669275 0.11767377 155.04669275 0.11767377 157.02624607 0.12139225 C161.43232519 0.56954556 164.69310608 1.7950313 168.76538086 3.50170898 C165.49546081 4.59168234 164.74492017 4.40779757 161.54144287 3.57939148 C154.51495985 2.07169936 147.49440475 2.22956119 140.34838867 2.25878906 C138.81299763 2.25771413 137.277607 2.25577232 135.74221802 2.2530365 C131.59733363 2.2482171 127.45255805 2.2558089 123.30768681 2.26598954 C118.95006005 2.27482653 114.59243614 2.27301145 110.23480225 2.27262878 C102.91489869 2.27356344 95.59503674 2.28221784 88.27514648 2.29589844 C79.84439712 2.31159824 71.41369335 2.31689718 62.98293042 2.31616288 C53.9676367 2.31548403 44.95236027 2.32244637 35.9370718 2.33160949 C33.3583488 2.33372804 30.77962864 2.33444893 28.20090485 2.3348484 C24.12638088 2.33586312 20.05189424 2.34205038 15.97738266 2.35201454 C14.49325413 2.35490193 13.0091213 2.35617269 11.52499008 2.35558701 C-9.39498949 1.75935045 -9.39498949 1.75935045 -28.23461914 9.50170898 C-30.28126283 11.74092528 -31.66412315 13.88421566 -33.23461914 16.50170898 C-33.89461914 16.50170898 -34.55461914 16.50170898 -35.23461914 16.50170898 C-33.65103987 10.69525166 -29.59176949 6.67015256 -24.64327335 3.47383022 C-16.85303422 -0.66168486 -8.56425394 -0.05312813 0 0 Z " fill="#B6B8BD" transform="translate(57.234619140625,68.498291015625)"/>
<path d="M0 0 C4.53738058 3.72167171 5.06236737 9.47440925 6 15 C6.1857549 18.88021338 5.57650818 21.29331255 3.0625 24.375 C-1.07337599 27.63356896 -4.90616517 27.13685184 -9.97219849 27.12025452 C-10.91312438 27.12110894 -11.85405027 27.12196337 -12.82348907 27.12284368 C-15.99578905 27.12449887 -19.16803687 27.11897645 -22.34033203 27.11352539 C-24.60660806 27.1132435 -26.87288418 27.11340129 -29.13916016 27.1139679 C-35.30827441 27.1142558 -41.47736937 27.10836016 -47.64647913 27.10139394 C-54.08738769 27.09515928 -60.52829665 27.09455651 -66.96920776 27.09336853 C-77.78530248 27.09060964 -88.60138926 27.08435569 -99.41748047 27.07543945 C-110.55940719 27.06626415 -121.70133198 27.05918389 -132.84326172 27.05493164 C-133.52974525 27.05466892 -134.21622879 27.05440619 -134.92351486 27.05413551 C-138.36730997 27.0528305 -141.81110509 27.05156678 -145.25490022 27.05032361 C-173.83660495 27.03995243 -202.4183022 27.02226116 -231 27 C-231 26.67 -231 26.34 -231 26 C-229.829558 25.99761165 -228.659116 25.99522329 -227.45320606 25.99276257 C-199.67467215 25.93541344 -171.8962115 25.86269055 -144.11776902 25.77101372 C-140.69936266 25.75974544 -137.28095588 25.74860701 -133.86254883 25.73754883 C-132.8417259 25.7342433 -132.8417259 25.7342433 -131.8002803 25.730871 C-120.77824241 25.69549027 -109.75620459 25.67063053 -98.73413096 25.64965298 C-87.42602864 25.62789709 -76.11799994 25.59462579 -64.80995625 25.55129844 C-58.4577319 25.52732545 -52.10558928 25.50862337 -45.75332069 25.50238609 C-39.77714077 25.49635371 -33.8011701 25.47642071 -27.82506752 25.44572449 C-25.62926687 25.43691461 -23.43343892 25.43322775 -21.23762131 25.43499184 C-18.24384865 25.43663791 -15.25071896 25.42000191 -12.2570343 25.39872742 C-10.9481763 25.40599878 -10.9481763 25.40599878 -9.61287671 25.41341704 C-4.93150669 25.35836699 -1.79328288 25.05935085 2 22 C3.44207941 19.11584117 3.09394887 16.58278472 3.0625 13.375 C3.05347656 12.18648437 3.04445312 10.99796875 3.03515625 9.7734375 C3.02355469 8.85820312 3.01195312 7.94296875 3 7 C2.34 7 1.68 7 1 7 C0.67 4.69 0.34 2.38 0 0 Z " fill="#D5D7DB" transform="translate(247,190)"/>
<path d="M0 0 C0.33 0 0.66 0 1 0 C1.33 2.31 1.66 4.62 2 7 C2.99 7.33 3.98 7.66 5 8 C5 8.99 5 9.98 5 11 C5.66 11 6.32 11 7 11 C7 11.66 7 12.32 7 13 C82.24 13 157.48 13 235 13 C235 13.33 235 13.66 235 14 C205.7845219 14.11404038 176.56905959 14.20253663 147.35340448 14.25532665 C143.90495483 14.26158025 140.45650563 14.26805185 137.00805664 14.2746582 C136.3215268 14.27596976 135.63499695 14.27728131 134.92766317 14.2786326 C123.80854691 14.30039465 112.68955977 14.3398205 101.57052014 14.38576398 C90.16301869 14.43250658 78.7556221 14.45991639 67.34802216 14.47044247 C60.93979005 14.47696982 54.5318509 14.49234662 48.12371254 14.52865028 C42.0949891 14.56252851 36.06667999 14.5730693 30.03787041 14.56553841 C27.82268143 14.56691659 25.60747893 14.57689729 23.39237213 14.59602737 C20.37205627 14.62083702 17.35331287 14.61494875 14.33296204 14.60127258 C13.01243118 14.62311889 13.01243118 14.62311889 11.66522294 14.64540654 C7.29370229 14.59175397 5.53764574 14.41580284 1.97137737 11.65773296 C-0.27206637 8.63321088 -0.83742761 6.73916494 -1 3 C-0.67 2.01 -0.34 1.02 0 0 Z " fill="#646870" transform="translate(9,202)"/>
<path d="M0 0 C1.6329879 -0.00461494 1.6329879 -0.00461494 3.29896545 -0.00932312 C5.06608131 0.00145515 5.06608131 0.00145515 6.86889648 0.01245117 C8.69142189 0.0131385 8.69142189 0.0131385 10.55076599 0.01383972 C13.12727837 0.01686442 15.70378889 0.02475714 18.28027344 0.03710938 C22.19985538 0.05523433 26.1191991 0.05761989 30.03881836 0.05737305 C32.54467975 0.06229363 35.05053956 0.06812429 37.55639648 0.07495117 C39.30225792 0.07662041 39.30225792 0.07662041 41.08338928 0.07832336 C47.6738265 0.11617798 54.13497037 0.43621599 60.67749023 1.24291992 C60.67749023 1.57291992 60.67749023 1.90291992 60.67749023 2.24291992 C47.31249023 2.73791992 47.31249023 2.73791992 33.67749023 3.24291992 C38.95749023 3.57291992 44.23749023 3.90291992 49.67749023 4.24291992 C49.67749023 4.57291992 49.67749023 4.90291992 49.67749023 5.24291992 C21.46249023 5.73791992 21.46249023 5.73791992 -7.32250977 6.24291992 C-7.65250977 4.92291992 -7.98250977 3.60291992 -8.32250977 2.24291992 C-4.97484278 0.01114193 -3.90636253 -0.00581063 0 0 Z " fill="#060E1E" transform="translate(45.322509765625,8.757080078125)"/>
<path d="M0 0 C1.12667197 -0.00551503 1.12667197 -0.00551503 2.27610499 -0.01114148 C4.8002522 -0.02218017 7.32435826 -0.02602241 9.848526 -0.02983093 C11.6552646 -0.03609527 13.4620019 -0.04274204 15.26873779 -0.04974365 C20.18189069 -0.06715197 25.09503386 -0.07770421 30.00820994 -0.08594918 C33.07586445 -0.09109801 36.14351592 -0.09717369 39.21116829 -0.10346031 C48.80385748 -0.12250897 58.39653898 -0.13674274 67.98924345 -0.14507228 C79.0729727 -0.15485493 90.1565028 -0.1812026 101.24016184 -0.22157317 C109.80157454 -0.25169038 118.36293 -0.26653683 126.92439467 -0.26985329 C132.04086201 -0.27220812 137.15711649 -0.2812251 142.27352715 -0.30631447 C147.08425074 -0.32952446 151.89462023 -0.33385707 156.70538521 -0.32355309 C158.47269491 -0.32305594 160.24002163 -0.32942867 162.00727844 -0.34310913 C164.41682081 -0.36072088 166.82507742 -0.353776 169.23461914 -0.34057617 C169.9368559 -0.35154542 170.63909266 -0.36251466 171.36260933 -0.37381631 C174.84058205 -0.3276936 176.41978025 -0.06780514 179.14618778 2.17765522 C179.90582152 3.15256554 179.90582152 3.15256554 180.68080139 4.14717102 C179.51614255 3.82268667 178.35148371 3.49820232 177.15153217 3.16388512 C173.10183413 2.15627987 169.33511678 1.8908029 165.14910889 1.87974548 C164.43541305 1.87521437 163.72171721 1.87068326 162.98639423 1.86601484 C160.61843036 1.85345432 158.25069896 1.85498574 155.88270569 1.85664368 C154.17525439 1.85065322 152.46780579 1.84384648 150.76036072 1.83628845 C146.13832786 1.81867442 141.51636913 1.81393503 136.89430594 1.81265688 C134.00228153 1.81123217 131.11027577 1.80695653 128.218256 1.80166245 C118.1166477 1.78317772 108.01509206 1.77498992 97.91346741 1.77656555 C88.51695149 1.77776668 79.12066537 1.7566659 69.72420758 1.72507823 C61.6398539 1.69887578 53.5555751 1.68819991 45.47117931 1.68947637 C40.65023604 1.68998481 35.82949715 1.68436675 31.00859642 1.66312027 C26.47190028 1.64367075 21.93560211 1.64365904 17.39889145 1.65815353 C15.74095258 1.66023439 14.08298834 1.65558417 12.4250927 1.64343262 C1.95761644 1.57172499 -7.18012267 2.22861191 -16.25669861 8.02217102 C-18.6718729 10.51053241 -20.41500735 13.25805325 -22.31919861 16.14717102 C-22.97919861 16.14717102 -23.63919861 16.14717102 -24.31919861 16.14717102 C-22.11338251 9.12866526 -16.38855057 4.88658218 -10.31919861 1.14717102 C-6.80948849 -0.02273235 -3.651276 -0.00095556 0 0 Z " fill="#BABDC2" transform="translate(46.31919860839844,14.852828979492188)"/>
<path d="M0 0 C18.19412864 -0.04681191 36.38824155 -0.08203377 54.58241749 -0.10362434 C63.03112113 -0.11391764 71.47978725 -0.12794057 79.9284668 -0.15087891 C87.29610476 -0.17087258 94.66371554 -0.18373058 102.03137988 -0.18817699 C105.92906892 -0.19077428 109.82668023 -0.19683808 113.72434425 -0.21146011 C117.40066215 -0.2251387 121.07687104 -0.2292021 124.75321198 -0.22621536 C126.72993366 -0.2270191 128.70664375 -0.23772654 130.68333435 -0.24884033 C149.79489101 -0.20510899 149.79489101 -0.20510899 154 4 C151.36 4 148.72 4 146 4 C146 3.34 146 2.68 146 2 C97.82 2 49.64 2 0 2 C0 1.34 0 0.68 0 0 Z " fill="#3D424C" transform="translate(76,116)"/>
<path d="M0 0 C1.1114035 -0.00315216 2.22280701 -0.00630432 3.3678894 -0.009552 C5.18342819 -0.00651566 5.18342819 -0.00651566 7.03564453 -0.00341797 C8.27009308 -0.00437469 9.50454163 -0.00533142 10.77639771 -0.00631714 C14.06652563 -0.00717449 17.35660681 -0.0031344 20.64672852 0.00244141 C22.66326405 0.00438951 24.67975594 0.0024525 26.69628906 -0.00097656 C30.55942823 -0.00714392 34.4225027 -0.00640736 38.28564453 -0.00341797 C39.49195526 -0.0054422 40.69826599 -0.00746643 41.94113159 -0.009552 C43.05883942 -0.00639984 44.17654724 -0.00324768 45.328125 0 C46.31328094 0.00079559 47.29843689 0.00159119 48.31344604 0.00241089 C50.79345703 0.12939453 50.79345703 0.12939453 53.79345703 1.12939453 C53.46345703 2.11939453 53.13345703 3.10939453 52.79345703 4.12939453 C54.11345703 5.11939453 55.43345703 6.10939453 56.79345703 7.12939453 C53.43432537 6.72629873 50.37157742 6.35776101 47.21347046 5.11026001 C42.51088015 3.76154937 38.06767801 3.82119021 33.19824219 3.81054688 C32.14398041 3.80050125 31.08971863 3.79045563 30.00350952 3.78010559 C26.52985157 3.74929328 23.05627064 3.73224364 19.58251953 3.71533203 C17.16970152 3.69661884 14.75689004 3.67704532 12.34408569 3.65664673 C6.00168714 3.60533563 -0.34073262 3.56570426 -6.68322754 3.52850342 C-13.15850061 3.4884575 -19.6336855 3.4373678 -26.10888672 3.38720703 C-38.80804241 3.29045976 -51.5072487 3.20567585 -64.20654297 3.12939453 C-64.20654297 2.79939453 -64.20654297 2.46939453 -64.20654297 2.12939453 C-63.48213516 2.11908707 -62.75772736 2.1087796 -62.0113678 2.09815979 C-55.19802395 2.00034685 -48.38476497 1.89785594 -41.5715723 1.79005527 C-38.06849942 1.73479498 -34.56541824 1.68137019 -31.06225586 1.63208008 C-27.03864153 1.57538785 -23.01518765 1.51082052 -18.99169922 1.44580078 C-17.7281813 1.42908829 -16.46466339 1.41237579 -15.16285706 1.39515686 C-14.00172897 1.37521164 -12.84060089 1.35526642 -11.64428711 1.3347168 C-10.61614395 1.31917252 -9.58800079 1.30362823 -8.52870178 1.28761292 C-5.39951775 1.07440853 -3.4957047 0.00282763 0 0 Z " fill="#0B1427" transform="translate(174.20654296875,10.87060546875)"/>
<path d="M0 0 C1.77644632 -0.00214836 3.55289126 -0.00602976 5.32933044 -0.01150513 C10.13283883 -0.02116214 14.935973 -0.00594281 19.73943615 0.01440096 C24.77259556 0.03202039 29.80574426 0.02844599 34.83892822 0.02767944 C43.2854231 0.02954961 51.73177383 0.04687868 60.17822266 0.07421875 C69.94233975 0.1057072 79.70629931 0.11621337 89.47046351 0.11474764 C99.87398698 0.1133969 110.27744977 0.12727374 120.68095493 0.14564085 C123.67675825 0.14990234 126.67255178 0.15132303 129.66835785 0.15211868 C134.37323838 0.15412762 139.07798668 0.1663377 143.78282356 0.18645096 C145.50938418 0.19229172 147.23596002 0.19475356 148.96253014 0.19359589 C151.31856474 0.19261393 153.67422937 0.20393049 156.0302124 0.21841431 C157.34867031 0.221766 158.66712822 0.22511768 160.0255394 0.22857094 C163.28141502 0.47371988 165.5227047 1.07629359 168.44238281 2.48583984 C165.44238281 3.48583984 165.44238281 3.48583984 162.44238281 2.48583984 C160.11673042 2.38700738 157.78828599 2.35079307 155.46054077 2.34539795 C154.74562237 2.34242683 154.03070398 2.3394557 153.29412138 2.33639455 C150.89219544 2.3277048 148.49031933 2.32619905 146.08837891 2.32470703 C144.36856988 2.32007893 142.64876188 2.31505428 140.92895508 2.30966187 C136.25099206 2.29653223 131.5730434 2.29009143 126.89506483 2.28565121 C123.97142945 2.28272047 121.04779799 2.27861558 118.12416458 2.27414703 C108.97409565 2.26046859 99.82403568 2.25080449 90.67395723 2.24694514 C80.11724624 2.24246798 69.56066495 2.22493742 59.00399339 2.19594455 C50.84164903 2.17430726 42.6793411 2.16423971 34.51696837 2.16290402 C29.6435082 2.16185716 24.77016989 2.15597501 19.89673996 2.13808441 C15.30847065 2.12156909 10.72041435 2.11946501 6.13212585 2.12822342 C4.45238804 2.12899203 2.77263861 2.12467437 1.09292984 2.11476517 C-14.33984809 2.0019135 -14.33984809 2.0019135 -27.55761719 9.48583984 C-28.21761719 9.48583984 -28.87761719 9.48583984 -29.55761719 9.48583984 C-29.86699219 10.26958984 -30.17636719 11.05333984 -30.49511719 11.86083984 C-31.55761719 14.48583984 -31.55761719 14.48583984 -32.55761719 16.48583984 C-33.21761719 16.48583984 -33.87761719 16.48583984 -34.55761719 16.48583984 C-32.88476213 10.96541816 -29.56653871 6.61452843 -24.87043381 3.29222679 C-17.03868525 -0.7279637 -8.56265529 -0.06016985 0 0 Z " fill="#D4D6DA" transform="translate(56.5576171875,123.51416015625)"/>
<path d="M0 0 C1.13976791 -0.00315216 2.27953583 -0.00630432 3.45384216 -0.009552 C4.69634232 -0.00752777 5.93884247 -0.00550354 7.21899414 -0.00341797 C8.50286514 -0.00437469 9.78673615 -0.00533142 11.10951233 -0.00631714 C13.84255158 -0.00779539 16.57555828 -0.00564142 19.30859375 -0.00097656 C22.75326914 0.00462567 26.19786564 0.00141737 29.64253807 -0.00442886 C44.31319314 -0.02541829 58.92762918 0.10532787 73.56665039 1.12939453 C73.56665039 1.45939453 73.56665039 1.78939453 73.56665039 2.12939453 C55.74523475 3.10366853 37.97408461 3.25076671 20.12915039 3.19189453 C17.43969875 3.18627777 14.75024547 3.18223346 12.06079102 3.17822266 C5.56272349 3.16736021 -0.93530853 3.15075421 -7.43334961 3.12939453 C-7.43334961 2.46939453 -7.43334961 1.80939453 -7.43334961 1.12939453 C-4.82657531 -0.17399262 -2.9193234 0.00231301 0 0 Z " fill="#0C182C" transform="translate(47.433349609375,172.87060546875)"/>
<path d="M0 0 C12.87 0 25.74 0 39 0 C39 0.66 39 1.32 39 2 C46.92 2.33 54.84 2.66 63 3 C63 3.33 63 3.66 63 4 C34.62 4 6.24 4 -23 4 C-23 3.67 -23 3.34 -23 3 C-10.625 2.505 -10.625 2.505 2 2 C1.34 1.34 0.68 0.68 0 0 Z " fill="#040919" transform="translate(95,64)"/>
<path d="M0 0 C4.62469309 3.99405312 5.43124625 9.01109528 5.96484375 14.8515625 C6.01187367 17.72561323 5.51073585 19.55404671 4 22 C-0.63262216 26.32378068 -5.45786512 26.14442547 -11.52246094 26.11352539 C-12.6498745 26.11374443 -12.6498745 26.11374443 -13.80006409 26.1139679 C-16.27819734 26.11327262 -18.75625492 26.10549826 -21.234375 26.09765625 C-22.95501667 26.0957907 -24.67565888 26.09436744 -26.39630127 26.09336853 C-30.92052685 26.08955413 -35.44472023 26.07973302 -39.96893311 26.06866455 C-44.58735722 26.05842729 -49.20578655 26.05386595 -53.82421875 26.04882812 C-62.88282663 26.0381098 -71.94141064 26.02104629 -81 26 C-81 25.67 -81 25.34 -81 25 C-80.03391312 24.98160568 -79.06782623 24.96321136 -78.07246399 24.94425964 C-68.96437474 24.76895597 -59.85671269 24.57846552 -50.74924946 24.37313366 C-46.0670806 24.26805958 -41.38492519 24.16832402 -36.70239258 24.08081055 C-32.18278438 23.99614514 -27.66368101 23.89742831 -23.14458275 23.78899574 C-21.42113979 23.75010767 -19.6975752 23.71626876 -17.97393227 23.68758202 C-15.55803237 23.64650799 -13.14318989 23.58743358 -10.7277832 23.52416992 C-10.01640198 23.51625427 -9.30502075 23.50833862 -8.57208252 23.50018311 C-4.24869897 23.36359093 -1.44981121 22.64144721 2 20 C3.78125392 16.43749215 3.51247263 12.62680264 2.328125 8.8671875 C1.79382666 7.50119834 1.23793501 6.14336809 0.65625 4.796875 C0 3 0 3 0 0 Z " fill="#BBBDC1" transform="translate(248,82)"/>
<path d="M0 0 C2.31 0 4.62 0 7 0 C6.67 0.66 6.34 1.32 6 2 C24.315 2.495 24.315 2.495 43 3 C43 3.33 43 3.66 43 4 C-6.83 4 -56.66 4 -108 4 C-108 3.67 -108 3.34 -108 3 C-71.7 2.67 -35.4 2.34 2 2 C1.01 1.01 1.01 1.01 0 0 Z " fill="#101724" transform="translate(155,174)"/>
<path d="M0 0 C9.79362294 1.22420287 16.17220094 7.45202877 23 14 C22.67 14.66 22.34 15.32 22 16 C20.35 14.68 18.7 13.36 17 12 C16.67 12.66 16.34 13.32 16 14 C15.34 14 14.68 14 14 14 C14.58929011 17.03063487 15.25044562 20.0017825 16 23 C13.36 22.34 10.72 21.68 8 21 C8.33 20.01 8.66 19.02 9 18 C9.66 17.67 10.32 17.34 11 17 C10.4225 16.59007813 9.845 16.18015625 9.25 15.7578125 C8.5075 15.21898438 7.765 14.68015625 7 14.125 C5.88625 13.32449219 5.88625 13.32449219 4.75 12.5078125 C3.88375 11.76144531 3.88375 11.76144531 3 11 C3 10.34 3 9.68 3 9 C5.3125 8.375 5.3125 8.375 8 8 C8.99 8.66 9.98 9.32 11 10 C10.505 9.54625 10.01 9.0925 9.5 8.625 C8 7 8 7 8 5 C5.36 4.01 2.72 3.02 0 2 C0 1.34 0 0.68 0 0 Z " fill="#121C2F" transform="translate(223,63)"/>
<path d="M0 0 C-0.33 0.99 -0.66 1.98 -1 3 C-0.01 3.33 0.98 3.66 2 4 C2 4.66 2 5.32 2 6 C1.43410156 5.84402344 0.86820313 5.68804687 0.28515625 5.52734375 C-2.75263246 4.82631559 -5.77589509 4.62484474 -8.87890625 4.37890625 C-11 4 -11 4 -14 2 C-12.35 1.67 -10.7 1.34 -9 1 C-18.57 0.67 -28.14 0.34 -38 0 C-38 -0.66 -38 -1.32 -38 -2 C-11.20816169 -4.89083419 -11.20816169 -4.89083419 0 0 Z " fill="#0B1527" transform="translate(232,67)"/>
<path d="M0 0 C4.11324024 4.48717117 5.03663502 10.29701189 5.4375 16.1875 C5 20 5 20 2.9556427 22.70280457 C-0.67373912 25.52364598 -3.31775844 25.67906689 -7.7277832 25.56762695 C-8.48929184 25.56835709 -9.25080048 25.56908722 -10.03538513 25.56983948 C-12.54125313 25.56636835 -15.04523985 25.52753318 -17.55078125 25.48828125 C-19.29240402 25.47895135 -21.03403994 25.47183607 -22.77568054 25.46684265 C-27.35121126 25.4477866 -31.92594358 25.39869828 -36.50115967 25.34332275 C-41.17318929 25.29209992 -45.84534841 25.26932216 -50.51757812 25.24414062 C-59.67873547 25.19057782 -68.83930125 25.10528222 -78 25 C-78 24.67 -78 24.34 -78 24 C-77.05452805 23.98969254 -76.10905609 23.97938507 -75.13493347 23.96876526 C-66.23253628 23.87108486 -57.33020981 23.76835583 -48.42792797 23.66066074 C-43.85098367 23.6054542 -39.27403295 23.55203778 -34.69702148 23.50268555 C-30.28144544 23.4550086 -25.86594732 23.4026645 -21.45046425 23.34705925 C-19.76435596 23.32665081 -18.07822631 23.30793522 -16.39208031 23.29092598 C-14.03368779 23.26684855 -11.6754424 23.23679855 -9.31713867 23.20532227 C-8.61726837 23.1995668 -7.91739807 23.19381134 -7.19631958 23.18788147 C-4.19306117 23.14220346 -1.87375125 22.95791708 1 22 C1.02716824 19.45826023 1.04691969 16.91681585 1.0625 14.375 C1.07506836 13.30572266 1.07506836 13.30572266 1.08789062 12.21484375 C1.10710296 8.02655562 0.8267327 4.1271538 0 0 Z " fill="#9699A0" transform="translate(248,137)"/>
<path d="M0 0 C0.763125 0.20625 1.52625 0.4125 2.3125 0.625 C2.6425 2.275 2.9725 3.925 3.3125 5.625 C2.44625 6.140625 1.58 6.65625 0.6875 7.1875 C-3.14951739 9.71810433 -5.85425882 13.04828418 -8.6875 16.625 C-11.25 14.375 -11.25 14.375 -13.6875 11.625 C-13.50771873 9.02587652 -12.94273119 7.89855548 -11.1640625 5.9921875 C-10.55304687 5.49976563 -9.94203125 5.00734375 -9.3125 4.5 C-8.70664062 4.00242188 -8.10078125 3.50484375 -7.4765625 2.9921875 C-3.01124424 -0.42017362 -3.01124424 -0.42017362 0 0 Z " fill="#101829" transform="translate(31.6875,175.375)"/>
<path d="M0 0 C4.53738058 3.72167171 5.06236737 9.47440925 6 15 C6.1857549 18.88021338 5.57650818 21.29331255 3.0625 24.375 C-0.67954575 27.32327847 -3.70269173 27.13668997 -8.29541016 27.11352539 C-9.42238564 27.11374443 -9.42238564 27.11374443 -10.5721283 27.1139679 C-13.0611355 27.11326996 -15.55006833 27.10548314 -18.0390625 27.09765625 C-19.76256265 27.09579165 -21.48606334 27.09436794 -23.20956421 27.09336853 C-27.75025897 27.08954669 -32.29092185 27.07971922 -36.831604 27.06866455 C-41.46325245 27.05844329 -46.09490603 27.05386937 -50.7265625 27.04882812 C-59.81772236 27.03809667 -68.90885853 27.02102422 -78 27 C-78 26.67 -78 26.34 -78 26 C-77.07149734 25.99413376 -76.14299469 25.98826752 -75.18635559 25.98222351 C-66.43163732 25.92429489 -57.67717412 25.85221708 -48.92270374 25.76428509 C-44.42203884 25.71957737 -39.92146455 25.68032216 -35.4206543 25.65356445 C-31.07626029 25.62753542 -26.73221488 25.58713597 -22.38803673 25.53681374 C-20.73151679 25.52014229 -19.07493656 25.50862973 -17.4183445 25.50238609 C-15.09598972 25.49274783 -12.77452727 25.46469323 -10.45239258 25.43237305 C-9.76906357 25.43380814 -9.08573456 25.43524323 -8.38169861 25.4367218 C-4.11052622 25.35277501 -1.40729047 24.59679716 2 22 C3.44207941 19.11584117 3.09394887 16.58278472 3.0625 13.375 C3.05347656 12.18648437 3.04445313 10.99796875 3.03515625 9.7734375 C3.02355469 8.85820312 3.01195312 7.94296875 3 7 C2.34 7 1.68 7 1 7 C0.505 3.535 0.505 3.535 0 0 Z " fill="#D1D2D7" transform="translate(247,190)"/>
<path d="M0 0 C6.49196796 -0.10217095 12.98372542 -0.17178598 19.47631836 -0.21972656 C21.68082426 -0.23973086 23.88527786 -0.26694322 26.08959961 -0.30175781 C29.27470883 -0.35077058 32.45911116 -0.37308127 35.64453125 -0.390625 C36.61582474 -0.41127014 37.58711823 -0.43191528 38.58784485 -0.45318604 C47.9590982 -0.45619757 56.59261721 2.15206622 64 8 C64.495 8.99 64.495 8.99 65 10 C63.02350466 9.02487066 61.06651666 8.03703133 59.140625 6.96484375 C58.51671875 6.62582031 57.8928125 6.28679687 57.25 5.9375 C56.63640625 5.59589844 56.0228125 5.25429687 55.390625 4.90234375 C48.84186234 2.43050687 41.28729046 2.80609424 34.375 2.68359375 C32.89374634 2.6524221 32.89374634 2.6524221 31.38256836 2.62062073 C28.25511039 2.55569247 25.12757473 2.4965063 22 2.4375 C19.86848183 2.39426072 17.73697127 2.35064478 15.60546875 2.30664062 C10.40372588 2.20006997 5.20190723 2.0982026 0 2 C0 1.34 0 0.68 0 0 Z " fill="#63676F" transform="translate(175,171)"/>
<path d="M0 0 C2.51384183 4.47939717 3.0661011 8.90195285 3 14 C1.82481585 16.96888627 0.97736816 18.3392663 -1.64312744 20.11080933 C-4.92453657 21.34880515 -8.06572427 21.26227603 -11.52246094 21.22705078 C-12.6498745 21.22748886 -12.6498745 21.22748886 -13.80006409 21.22793579 C-16.27828616 21.22654519 -18.7562056 21.21099684 -21.234375 21.1953125 C-22.95501542 21.19158141 -24.67565797 21.18873489 -26.39630127 21.18673706 C-30.92057176 21.17910818 -35.44471344 21.15946608 -39.96893311 21.1373291 C-44.58734393 21.11685464 -49.2057756 21.10773192 -53.82421875 21.09765625 C-62.88286903 21.07621949 -71.9414238 21.04209251 -81 21 C-81 20.67 -81 20.34 -81 20 C-80.05896927 19.99857498 -79.11793854 19.99714996 -78.14839172 19.99568176 C-69.27587822 19.9790053 -60.40382298 19.93621218 -51.53155231 19.86790943 C-46.97026824 19.83363234 -42.40931935 19.80852836 -37.84790039 19.80444336 C-33.44500911 19.8001619 -29.04287403 19.77171246 -24.64021873 19.72656822 C-22.96137078 19.71358824 -21.28243236 19.70928734 -19.60354042 19.71384621 C-17.24959505 19.71874902 -14.8978626 19.69267876 -12.54418945 19.65942383 C-11.8515097 19.66804947 -11.15882996 19.67667511 -10.44515991 19.68556213 C-6.6655516 19.59616667 -5.06349024 19.05006888 -2.05900574 16.68070984 C0.64131015 13.1650502 0.51703797 11.06461246 0.3125 6.6875 C0.24482422 4.80611328 0.24482422 4.80611328 0.17578125 2.88671875 C0.11777344 1.93410156 0.05976563 0.98148438 0 0 Z " fill="#D6D7DA" transform="translate(250,33)"/>
<path d="M0 0 C6.49207158 -0.05108629 12.98409052 -0.08589434 19.47631836 -0.10986328 C21.68076515 -0.11986516 23.88519886 -0.13347099 26.08959961 -0.15087891 C29.27460984 -0.17538453 32.4594433 -0.18654155 35.64453125 -0.1953125 C36.61582474 -0.20563507 37.58711823 -0.21595764 38.58784485 -0.22659302 C45.15600077 -0.22764839 51.65116512 0.19554846 58 2 C58.66 2.66 59.32 3.32 60 4 C57.36 4 54.72 4 52 4 C52 3.34 52 2.68 52 2 C50.54315796 2.00785522 50.54315796 2.00785522 49.05688477 2.01586914 C45.36467454 2.03432112 41.67246813 2.04557471 37.98022461 2.05493164 C36.39883737 2.05988196 34.81745451 2.06664392 33.23608398 2.07543945 C22.11663502 2.13562113 11.09242761 1.78342092 0 1 C0 0.67 0 0.34 0 0 Z " fill="#5A5D66" transform="translate(170,116)"/>
<path d="M0 0 C7.61707204 -0.10134036 15.23397053 -0.17144061 22.8515625 -0.21972656 C25.44342546 -0.23985375 28.03524296 -0.26715816 30.62695312 -0.30175781 C34.35037449 -0.35022501 38.07319599 -0.37295816 41.796875 -0.390625 C43.53768341 -0.42159271 43.53768341 -0.42159271 45.31365967 -0.45318604 C46.93488739 -0.45363922 46.93488739 -0.45363922 48.58886719 -0.45410156 C50.01449982 -0.46742523 50.01449982 -0.46742523 51.46893311 -0.48101807 C54.71253478 0.13541408 55.90894832 1.51910815 58 4 C56.92169922 3.67854004 55.84339844 3.35708008 54.73242188 3.02587891 C49.27171021 1.667586 43.88366406 1.64743003 38.28125 1.5859375 C37.18276733 1.56657135 36.08428467 1.5472052 34.95251465 1.5272522 C31.46842033 1.46781137 27.98429234 1.42121333 24.5 1.375 C22.12759032 1.33678756 19.75519403 1.29773395 17.3828125 1.2578125 C11.58866115 1.16213922 5.79442813 1.07698931 0 1 C0 0.67 0 0.34 0 0 Z " fill="#AFB3B9" transform="translate(169,15)"/>
<path d="M0 0 C1.4370809 -0.05422947 2.87475462 -0.09289723 4.3125 -0.125 C5.11300781 -0.14820312 5.91351563 -0.17140625 6.73828125 -0.1953125 C9 0 9 0 12 2 C11.67 2.66 11.34 3.32 11 4 C11.99 4.33 12.98 4.66 14 5 C14 5.66 14 6.32 14 7 C13.43410156 6.84402344 12.86820313 6.68804687 12.28515625 6.52734375 C9.24736754 5.82631559 6.22410491 5.62484474 3.12109375 5.37890625 C1 5 1 5 -2 3 C-0.35 2.67 1.3 2.34 3 2 C2.01 2 1.02 2 0 2 C0 1.34 0 0.68 0 0 Z " fill="#101A2D" transform="translate(220,66)"/>
<path d="M0 0 C9.79362294 1.22420287 16.17220094 7.45202877 23 14 C22.67 14.66 22.34 15.32 22 16 C21.2575 15.38125 20.515 14.7625 19.75 14.125 C17.47334616 12.36576749 15.57044336 11.20489532 13 10 C10.25 8.5 10.25 8.5 8 7 C8 6.34 8 5.68 8 5 C5.36 4.01 2.72 3.02 0 2 C0 1.34 0 0.68 0 0 Z " fill="#6D7179" transform="translate(223,63)"/>
<path d="M0 0 C4.11324024 4.48717117 5.03663502 10.29701189 5.4375 16.1875 C4.9069761 20.81063684 3.56649994 22.14680005 0 25 C-0.99 24.67 -1.98 24.34 -3 24 C-1.68 23.34 -0.36 22.68 1 22 C1.02716824 19.45826023 1.04691969 16.91681585 1.0625 14.375 C1.07087891 13.66214844 1.07925781 12.94929687 1.08789062 12.21484375 C1.10710296 8.02655562 0.8267327 4.1271538 0 0 Z " fill="#AEAEB1" transform="translate(248,137)"/>
<path d="M0 0 C4.06243957 -0.05819473 8.12477146 -0.09366215 12.1875 -0.125 C13.33798828 -0.14175781 14.48847656 -0.15851563 15.67382812 -0.17578125 C16.78564453 -0.18222656 17.89746094 -0.18867188 19.04296875 -0.1953125 C20.06414795 -0.20578613 21.08532715 -0.21625977 22.13745117 -0.22705078 C25.12612167 0.01000368 27.29423369 0.74382898 30 2 C30 2.66 30 3.32 30 4 C30.61875 4.04125 31.2375 4.0825 31.875 4.125 C32.57625 4.41375 33.2775 4.7025 34 5 C35.25 8.0625 35.25 8.0625 36 11 C35.61070312 10.60167969 35.22140625 10.20335937 34.8203125 9.79296875 C25.08440628 0.57302069 12.65262397 1.37672084 0 1 C0 0.67 0 0.34 0 0 Z " fill="#171D2B" transform="translate(198,177)"/>
<path d="M0 0 C0.33 1.32 0.66 2.64 1 4 C-0.43429001 4.67354499 -1.87257057 5.33859701 -3.3125 6 C-4.51326172 6.556875 -4.51326172 6.556875 -5.73828125 7.125 C-8 8 -8 8 -11 8 C-10.34 6.35 -9.68 4.7 -9 3 C-9.99 2.34 -10.98 1.68 -12 1 C-8.00439392 -1.83022097 -4.57262677 -0.76210446 0 0 Z " fill="#151F30" transform="translate(38,121)"/>
<path d="M0 0 C4.53738058 3.72167171 5.06236737 9.47440925 6 15 C6.18471992 18.85859391 5.49728616 21.31408805 3.1875 24.5 C1 26 1 26 -1.25 25.75 C-1.8275 25.5025 -2.405 25.255 -3 25 C-2.195625 24.54625 -1.39125 24.0925 -0.5625 23.625 C2.08856572 22.25274335 2.08856572 22.25274335 3 20 C3.07092842 17.7927077 3.08415025 15.58332548 3.0625 13.375 C3.05347656 12.18648437 3.04445312 10.99796875 3.03515625 9.7734375 C3.02355469 8.85820312 3.01195312 7.94296875 3 7 C2.34 7 1.68 7 1 7 C0.67 4.69 0.34 2.38 0 0 Z " fill="#D5D6D8" transform="translate(247,190)"/>
<path d="M0 0 C-1.74951568 0.95921722 -3.49963244 1.91733817 -5.25 2.875 C-6.71179688 3.67550781 -6.71179688 3.67550781 -8.203125 4.4921875 C-9.87102389 5.39136204 -11.56026253 6.25475185 -13.28515625 7.0390625 C-15.8095271 8.45363022 -16.1305873 10.324884 -17 13 C-17.33 13.66 -17.66 14.32 -18 15 C-18.66 15 -19.32 15 -20 15 C-18.26787224 9.2839784 -14.83705071 4.6993256 -9.7109375 1.62890625 C-3.65897198 -1.21965733 -3.65897198 -1.21965733 0 0 Z " fill="#C4C7CB" transform="translate(42,125)"/>
<path d="M0 0 C4.62469309 3.99405312 5.43124625 9.01109528 5.96484375 14.8515625 C6.01187367 17.72561323 5.51073585 19.55404671 4 22 C1.875 23.8125 1.875 23.8125 0 25 C-0.66 24.67 -1.32 24.34 -2 24 C-1.175 23.154375 -0.35 22.30875 0.5 21.4375 C2.58347583 18.91010176 2.99718269 18.01901686 3.5 14.625 C3.00095163 11.00689929 2.0949789 8.12726598 0.65625 4.796875 C0 3 0 3 0 0 Z " fill="#D4D5D8" transform="translate(248,82)"/>
<path d="M0 0 C2.81858077 4.22787116 2.68030098 8.03222076 2 13 C0 16.125 0 16.125 -2 18 C-2.66 17.67 -3.32 17.34 -4 17 C-3.34 14.36 -2.68 11.72 -2 9 C-1.34 9 -0.68 9 0 9 C0 6.03 0 3.06 0 0 Z " fill="#242A35" transform="translate(249,197)"/>
<path d="M0 0 C-3 2 -3 2 -5.3046875 3.26171875 C-11.11863412 6.48678032 -14.57277771 9.28796285 -18 15 C-18.33 14.01 -18.66 13.02 -19 12 C-17.59106853 10.36828877 -16.17254042 8.74486055 -14.75 7.125 C-13.56664062 5.76761719 -13.56664062 5.76761719 -12.359375 4.3828125 C-8.32963306 0.31304001 -5.67399982 -0.25790908 0 0 Z " fill="#CBCCD2" transform="translate(41,180)"/>
<path d="M0 0 C-1.68921889 1.12614593 -3.38900743 2.23784616 -5.12109375 3.296875 C-10.08165132 6.40872562 -13.01761169 8.98958764 -16 14 C-16.66 14 -17.32 14 -18 14 C-16.59474558 9.52873593 -14.44928976 7.1284256 -11 4 C-10.195625 3.236875 -9.39125 2.47375 -8.5625 1.6875 C-5.47303665 -0.34702464 -3.62819568 -0.33750657 0 0 Z " fill="#DEDFE1" transform="translate(40,17)"/>
<path d="M0 0 C-3 2 -3 2 -5.33984375 3.296875 C-10.73845204 6.31684836 -13.93716502 8.64003879 -17 14 C-17.66 14 -18.32 14 -19 14 C-17.43501501 8.26172169 -13.02338257 3.79185029 -7.9765625 0.80078125 C-5.27525563 -0.29362173 -2.88179955 -0.13099089 0 0 Z " fill="#C7C9CE" transform="translate(41,71)"/>
<path d="M0 0 C0.33 0 0.66 0 1 0 C1.33 4.62 1.66 9.24 2 14 C0.68 13.67 -0.64 13.34 -2 13 C-3.19876651 7.55106131 -2.91360308 4.77830905 0 0 Z " fill="#232937" transform="translate(11,144)"/>
<path d="M0 0 C-3.66666667 3.66666667 -7.33333333 7.33333333 -11 11 C-10.39049587 4.5392562 -10.39049587 4.5392562 -8.6875 2.1875 C-3.78571429 -1.26190476 -3.78571429 -1.26190476 0 0 Z " fill="#1B2532" transform="translate(33,18)"/>
<path d="M0 0 C0.556875 0.268125 1.11375 0.53625 1.6875 0.8125 C0.07155168 2.85369788 -1.5981382 4.85322937 -3.3125 6.8125 C-3.9725 6.8125 -4.6325 6.8125 -5.3125 6.8125 C-5.3125 7.4725 -5.3125 8.1325 -5.3125 8.8125 C-6.3025 8.8125 -7.2925 8.8125 -8.3125 8.8125 C-7.82204356 4.398392 -4.79279276 -0.38860482 0 0 Z " fill="#0B1121" transform="translate(26.3125,178.1875)"/>
<path d="M0 0 C5.42000985 2.94229106 9.38411018 6.37404518 12 12 C7.15265392 9.23513027 3.10698638 6.78993734 0 2 C0 1.34 0 0.68 0 0 Z " fill="#5C6066" transform="translate(234,122)"/>
<path d="M0 0 C0.33 0 0.66 0 1 0 C1.33 2.31 1.66 4.62 2 7 C2.99 7.33 3.98 7.66 5 8 C5 8.99 5 9.98 5 11 C5.66 11 6.32 11 7 11 C7 11.66 7 12.32 7 13 C3.68682445 12.73136414 2.36123646 12.40940132 0.125 9.875 C-1.30731738 6.21463337 -0.8177236 3.79126394 0 0 Z " fill="#4F5360" transform="translate(9,202)"/>
<path d="M0 0 C3.58102841 3.38208239 6.56773474 6.69676146 9 11 C8.67 11.99 8.34 12.98 8 14 C7.4121875 12.6078125 7.4121875 12.6078125 6.8125 11.1875 C5.27222016 7.85677207 5.27222016 7.85677207 2.3125 6.4375 C1.549375 5.963125 0.78625 5.48875 0 5 C-0.3125 2.3125 -0.3125 2.3125 0 0 Z " fill="#81858A" transform="translate(241,19)"/>
<path d="M0 0 C2.36849215 2.53183644 2.51086931 4.5441547 2.8125 7.9375 C1.30710339 6.98766642 -0.19170347 6.02738109 -1.6875 5.0625 C-2.5228125 4.52882813 -3.358125 3.99515625 -4.21875 3.4453125 C-4.8684375 2.94773437 -5.518125 2.45015625 -6.1875 1.9375 C-6.1875 1.2775 -6.1875 0.6175 -6.1875 -0.0625 C-3.56357698 -1.0933269 -2.5833465 -1.2547683 0 0 Z " fill="#595D67" transform="translate(232.1875,72.0625)"/>
<path d="M0 0 C0.66 0.33 1.32 0.66 2 1 C-0.38704114 4.8457885 -2.97968282 6.07024775 -7 8 C-8.69859667 9.29241051 -10.37609523 10.61490475 -12 12 C-10.56394807 8.61181498 -8.79533421 6.6813402 -6 4.3125 C-5.29875 3.71050781 -4.5975 3.10851562 -3.875 2.48828125 C-2 1 -2 1 0 0 Z " fill="#1C202C" transform="translate(28,67)"/>
<path d="M0 0 C0 3 0 3 -1 6 C-1.66 6 -2.32 6 -3 6 C-3.103125 6.5775 -3.20625 7.155 -3.3125 7.75 C-4.09792798 10.32049158 -5.30504197 11.93657284 -7 14 C-7.33 13.01 -7.66 12.02 -8 11 C-6.85546875 8.80859375 -6.85546875 8.80859375 -5.1875 6.4375 C-4.64480469 5.65246094 -4.10210937 4.86742187 -3.54296875 4.05859375 C-2 2 -2 2 0 0 Z " fill="#1B2330" transform="translate(20,127)"/>
<path d="M0 0 C3.55506106 0.60943904 6.77908169 1.34601492 10 3 C11.3125 5.125 11.3125 5.125 12 7 C4.61538462 5.64615385 4.61538462 5.64615385 1.5 2.375 C1.005 1.59125 0.51 0.8075 0 0 Z " fill="#454C55" transform="translate(227,134)"/>
<path d="M0 0 C-0.99 0.495 -0.99 0.495 -2 1 C-1.34 1.66 -0.68 2.32 0 3 C-5.625 6 -5.625 6 -9 6 C-9 5.34 -9 4.68 -9 4 C-7.68 3.34 -6.36 2.68 -5 2 C-5.33 1.34 -5.66 0.68 -6 0 C-3.50907189 -1.24546405 -2.58919267 -0.7767578 0 0 Z " fill="#1A2536" transform="translate(40,10)"/>
<path d="M0 0 C1.32 0.66 2.64 1.32 4 2 C4 3.32 4 4.64 4 6 C1.625 6.1875 1.625 6.1875 -1 6 C-1.66 5.01 -2.32 4.02 -3 3 C-2.01 2.01 -1.02 1.02 0 0 Z M1 2 C2 4 2 4 2 4 Z " fill="#3D4551" transform="translate(236,27)"/>
<path d="M0 0 C0.66 0 1.32 0 2 0 C2 0.66 2 1.32 2 2 C1.01 1.67 0.02 1.34 -1 1 C-0.67 0.67 -0.34 0.34 0 0 Z M-6 2 C-1.44262737 2.43820891 1.57653445 2.85041169 5 6 C0.44262737 5.56179109 -2.57653445 5.14958831 -6 2 Z " fill="#091120" transform="translate(226,12)"/>
<path d="M0 0 C1.32 0 2.64 0 4 0 C4.33 2.64 4.66 5.28 5 8 C3.02 7.01 1.04 6.02 -1 5 C-0.67 4.34 -0.34 3.68 0 3 C0.66 3.33 1.32 3.66 2 4 C1.34 2.68 0.68 1.36 0 0 Z " fill="#6B7078" transform="translate(234,188)"/>
<path d="M0 0 C4.92127034 -0.16682272 8.50343896 -0.24828052 13 2 C13 2.33 13 2.66 13 3 C10.36 3 7.72 3 5 3 C5 2.34 5 1.68 5 1 C3.35 1 1.7 1 0 1 C0 0.67 0 0.34 0 0 Z " fill="#4F545A" transform="translate(217,117)"/>
<path d="M0 0 C1.37562854 1.28965176 2.70766393 2.62689293 4 4 C4 4.66 4 5.32 4 6 C1.36 5.34 -1.28 4.68 -4 4 C-3.67 3.01 -3.34 2.02 -3 1 C-2.01 0.67 -1.02 0.34 0 0 Z " fill="#878D99" transform="translate(235,80)"/>
<path d="M0 0 C0.33 0.99 0.66 1.98 1 3 C-0.8125 6.1875 -0.8125 6.1875 -3 9 C-3.66 9 -4.32 9 -5 9 C-3.7508258 5.54074837 -2.32472205 2.85306797 0 0 Z " fill="#B8BDC1" transform="translate(27,22)"/>
<path d="M0 0 C1.98 0 3.96 0 6 0 C6 1.33333333 6 2.66666667 6 4 C3.69 4 1.38 4 -1 4 C-0.34 3.67 0.32 3.34 1 3 C0.67 2.01 0.34 1.02 0 0 Z " fill="#0B1527" transform="translate(37,120)"/>
<path d="M0 0 C2.875 0.625 2.875 0.625 6 2 C7.375 5.125 7.375 5.125 8 8 C6.85073734 7.04578192 5.70569459 6.08647955 4.5625 5.125 C3.92441406 4.59132812 3.28632813 4.05765625 2.62890625 3.5078125 C1 2 1 2 0 0 Z " fill="#383E4A" transform="translate(226,180)"/>
<path d="M0 0 C0 1.32 0 2.64 0 4 C-1.98 3.34 -3.96 2.68 -6 2 C-6 1.34 -6 0.68 -6 0 C-3 -1 -3 -1 0 0 Z " fill="#565B63" transform="translate(231,126)"/>
<path d="M0 0 C0.33 0 0.66 0 1 0 C1.1875 3.375 1.1875 3.375 1 7 C0.01 7.66 -0.98 8.32 -2 9 C-3 6 -3 6 -1.5625 2.8125 C-1.046875 1.884375 -0.53125 0.95625 0 0 Z " fill="#141925" transform="translate(14,80)"/>
<path d="M0 0 C5.78461538 4.43076923 5.78461538 4.43076923 6.875 7.3125 C6.936875 8.1478125 6.936875 8.1478125 7 9 C3.22481455 7.74160485 2.80240862 6.44096192 1 3 C0.67 2.01 0.34 1.02 0 0 Z " fill="#999AA0" transform="translate(240,181)"/>
<path d="M0 0 C0.99 0.33 1.98 0.66 3 1 C0.525 4.465 0.525 4.465 -2 8 C-2.33 6.68 -2.66 5.36 -3 4 C-1.5625 1.75 -1.5625 1.75 0 0 Z " fill="#212B37" transform="translate(25,130)"/>
<path d="M0 0 C0.33 0 0.66 0 1 0 C1.2295711 3.36704285 1.33943529 5.41370268 -0.375 8.375 C-0.91125 8.91125 -1.4475 9.4475 -2 10 C-2.66 10 -3.32 10 -4 10 C-3.34 8.35 -2.68 6.7 -2 5 C-1.34 5 -0.68 5 0 5 C0 3.35 0 1.7 0 0 Z " fill="#242834" transform="translate(250,41)"/>
<path d="M0 0 C0.33 0.66 0.66 1.32 1 2 C3.01669827 3.13350534 3.01669827 3.13350534 5 4 C5 4.99 5 5.98 5 7 C5.66 7 6.32 7 7 7 C6.67 7.66 6.34 8.32 6 9 C0.42857143 3.85714286 0.42857143 3.85714286 0 0 Z " fill="#0B141E" transform="translate(232,19)"/>
<path d="M0 0 C2.7972908 2.06756277 3.02692273 3.14440371 3.6875 6.6875 C3.790625 7.780625 3.89375 8.87375 4 10 C3.67 9.01 3.34 8.02 3 7 C2.34 7 1.68 7 1 7 C0.67 4.69 0.34 2.38 0 0 Z " fill="#A7A9AD" transform="translate(247,190)"/>
<path d="M0 0 C1.32 0.66 2.64 1.32 4 2 C3.67 2.66 3.34 3.32 3 4 C0.36 3.34 -2.28 2.68 -5 2 C-3.68 1.67 -2.36 1.34 -1 1 C-0.67 0.67 -0.34 0.34 0 0 Z " fill="#2A303D" transform="translate(223,68)"/>
<path d="M0 0 C1 3 1 3 -0.25 5.625 C-2 8 -2 8 -5 9 C-3.7508258 5.54074837 -2.32472205 2.85306797 0 0 Z " fill="#232A35" transform="translate(18,20)"/>
<path d="" fill="#F4F4F5" transform="translate(0,0)"/>
</svg>
